<svg width="110" height="100" viewBox="0 0 110 100" fill="none" xmlns="http://www.w3.org/2000/svg">
<path d="M109.114 22.6496L109.41 22.7106L109.646 23.0159L109.823 23.5653L110 24.9084V29.0599L109.882 31.3798L109.587 35.6533L109.173 39.6215L108.937 42.3077L108.347 46.5202L107.934 48.9011L106.989 53.1746L106.457 55.3724L105.749 57.5702L105.04 59.6459L104.391 61.2332L103.623 62.8816L102.974 64.2857L102.088 65.9341L101.498 66.9719L100.199 68.9866L99.4901 70.0244L98.6635 71.1844L98.014 72.0391L96.5969 73.7485L95.6522 74.7253L95.2388 75.2137L94.5303 75.9463L94.0579 76.3736L93.2904 77.1673L92.6409 77.7168L91.9323 78.3883L90.9286 79.182L89.8657 79.9756L88.5668 80.8303L87.5039 81.4408L86.0869 82.3566L84.5517 83.3944L83.4889 84.127L82.367 84.9207L80.3595 86.3248L79.3557 87.0574L78.2339 87.8511L76.2263 89.3163L75.5178 89.8047L74.6321 90.4762L73.5103 91.2699L72.6836 91.8804L71.9161 92.4298L70.9123 93.1624L69.6723 94.1392L68.9048 94.7497L67.4286 96.276L66.661 97.3138L65.9525 98.3517L65.5392 99.0843L65.1849 100L63.7678 99.7558L62.5279 99.5116L62.2917 99.2064L62.1146 98.4738L61.7013 96.5202L61.1108 94.4445L60.5794 91.6362L59.9299 87.5458L59.6347 84.8596L59.5166 83.0892V81.8682L59.6937 79.5483L59.9299 77.5947L60.3432 75.0916L60.6975 72.8938L61.0518 71.3675L61.406 70.2686L61.8784 69.1087L62.4098 67.8266L63.0003 66.6667L63.6498 65.5678L64.2402 64.591L64.8897 63.7363L65.5392 62.9426L66.0116 62.3321H66.1296L66.1887 62.149H66.3068L66.4249 61.9048L67.7239 60.5617L68.1962 60.1343L69.0229 59.4017L69.7904 58.7302L70.558 57.9976L71.1485 57.4481L71.9161 56.7155L72.7427 55.8608L73.215 55.4335L74.7502 53.8462L75.2226 53.4188L76.3444 52.2589L76.6397 52.0147L78.2339 50.3663L78.7062 49.939L79.1196 49.5116L79.5919 49.0843L80.1824 48.5348L81.009 47.8633L82.0718 47.0696L83.1346 46.337L84.1974 45.8486L85.2012 45.6044L85.5555 45.5434H86.323L86.8545 45.7265L87.1497 46.0318L87.3268 46.4591L87.5039 47.558L87.563 48.718L87.4449 49.6948L87.1497 50.8547L86.5002 52.442L85.7916 53.9072L85.0241 55.0672L84.4336 55.8608L83.9022 56.5324L83.3708 57.1429L82.308 58.2418L81.8356 58.6691L81.068 59.2796L80.1824 59.8901L78.6472 61.3553L77.5844 62.6984L76.9939 63.6142L76.4625 64.652L76.4035 65.2015L76.6987 65.812L77.2301 66.3004L78.0567 66.7888L78.9424 67.094H80.0643L81.068 66.8498L82.6032 66.3004L84.1974 65.5678L85.3783 64.9573L86.6183 64.2247L87.7992 63.431L88.5668 62.8205L89.5115 62.0879L90.2791 61.4164L90.9286 60.8059L91.4009 60.3785L93.0542 58.6691L93.5856 57.9976L94.176 57.265L94.8255 56.4103L95.416 55.6777L95.6522 55.3114L96.0064 54.823L97.0692 53.1746L97.8368 51.8926L98.4273 50.9158L99.1358 49.5116L99.9034 47.8022L100.494 46.2149L101.143 44.2613L101.616 42.674L102.029 40.8425L102.797 37.1795L103.21 34.7986L103.505 32.3566L103.741 31.1356L104.332 29.3041L104.863 28.0831L105.276 27.0452L105.808 26.0074L106.339 25.1526L106.93 24.359L107.579 23.6264L108.229 23.0769L108.878 22.7106L109.114 22.6496Z" fill="#E3E3E3"/>
<path d="M37.0216 19.3528H38.4978L38.3797 19.4749L35.2503 20.1465L34.0103 20.5738L32.4161 21.3064L31.1171 21.978L30.2314 22.5274L28.9915 23.3821L28.2239 23.9926L27.5744 24.6031L26.9249 25.1526L25.9802 26.1294L25.5669 26.6178L24.8584 27.4115L24.0908 28.5104L22.9689 30.2808L21.788 32.6618L21.2566 33.9438L20.6071 35.9585L20.0167 38.1563L19.7214 39.4383L19.4262 41.3919L19.2491 43.2234L19.0719 46.337V47.4969L19.3081 49.9389L19.6033 51.7094L19.9576 53.2356L20.7252 55.7387L21.3747 57.5702L22.1423 59.4017L22.9689 61.1721L23.7365 62.5763L24.2679 63.5531L24.9764 64.713L25.8621 66.1782L26.3935 66.9108L27.1021 67.9487L28.4011 69.6581L29.0505 70.4517L29.582 71.1233L30.3495 72.039L31.0581 72.8327L32.0028 73.8705L33.8332 75.7631L34.3056 76.1905L35.0731 76.9841L35.5455 77.4115L36.3131 78.083L37.1397 78.8156L37.7302 79.304L38.5568 79.9756L40.6824 81.685L41.8043 82.4786L42.6899 83.1502L44.107 84.127L45.4651 85.1038L46.4098 85.7143L47.5316 86.4469L48.5354 87.0574L50.0706 87.9121L53.0228 89.5604L54.4399 90.293L55.6208 90.8425L56.2113 91.2088L56.3293 91.514L55.857 91.453L53.4361 90.7204L51.3696 89.9878L50.3068 89.5604L47.3545 88.5836L45.9374 88.0342L43.5166 87.1184L42.0995 86.5079L40.9776 86.0195L39.0292 85.1648L35.7817 83.6386L33.1837 82.2955L32.0618 81.685L30.4086 80.7692L29.1686 80.0366L27.8106 79.1819L26.8068 78.5714L24.1498 76.7399L23.087 75.9463L22.2604 75.3358L21.4928 74.7253L20.6662 74.0537L19.7214 73.26L18.9538 72.5885L18.3634 72.039L17.5958 71.3064L15.175 68.8034L14.7617 68.315L14.1122 67.5213L13.4627 66.6666L12.7541 65.6898L12.1046 64.652L11.5732 63.7362L10.8647 62.3931L10.0971 60.7448L9.4476 59.2185L8.85715 57.6312L8.20765 55.7997L7.49911 53.3577L6.90866 51.0989L6.4363 48.7179L6.20012 46.8254L6.08203 45.5433V42.674L6.25917 40.4762L6.61344 38.2784L6.90866 36.9963L7.55816 35.1038L8.32574 33.3944L8.97524 32.1734L9.62473 31.1966L10.3923 30.1587L10.9237 29.5482L11.4551 28.8767L12.3408 27.9609L12.8132 27.5336L13.7579 26.7399L14.8797 25.8852L16.2378 24.9694L17.4777 24.2368L19.0719 23.3821L20.6071 22.7106L22.6737 21.9169L24.1498 21.4285L26.8068 20.6959L28.9915 20.2075L30.6448 19.9023L32.4161 19.6581L35.4274 19.4139L37.0216 19.3528Z" fill="#E3E3E3"/>
<path d="M40.5646 36.4469H49.3033L49.4804 36.63V45.7265H51.9603L55.0306 45.6655H56.7429L56.861 45.7876L56.9201 47.1307V52.7473L56.861 56.3492L56.802 57.326L56.5068 57.4481L56.0344 57.5092H49.3623V58.3028L49.5394 58.547L49.4804 59.2796L49.4214 66.3614H44.3435L40.3875 66.3004L40.3284 66.2393L40.2694 64.7741L40.2103 57.6313L39.6199 57.5702L33.0659 57.5092L33.0068 50.4274V45.8486L33.184 45.7876L34.7782 45.7265L39.1475 45.6655L40.0922 45.6044V36.7521L40.1513 36.5079L40.5646 36.4469Z" fill="#E3E3E3"/>
<path d="M7.38063 29.7314L7.43967 29.8535L6.96731 31.1966L6.19973 33.7607L5.55023 35.7753L5.07787 37.79L4.54647 40.9035L4.1922 43.6508L4.01506 45.177L3.95602 46.337V47.1307L4.07411 49.0232L4.42838 51.7094L4.95978 54.9451L5.31405 56.5934L5.9045 58.4249L6.90827 61.0501L7.7349 62.8205L8.56153 64.4078L9.27007 65.5678L9.86052 66.4835L10.3919 67.2772L11.0414 68.1319L11.809 69.1087L12.4585 69.9023L13.108 70.6349L13.5213 71.1233L14.6432 72.2833L15.1155 72.7106L15.765 73.3211L16.5917 73.9927L17.3592 74.6032L18.1859 75.2747L19.0125 75.8852L20.0753 76.6789L20.9019 77.2894L21.8467 77.8999L22.5552 78.4493L23.9723 79.3651L25.1532 80.1587L26.8655 81.1966L27.8102 81.8071L30.2311 83.2112L31.1758 83.7607L32.3567 84.3712L33.6557 85.1038L35.4861 86.0195L36.4308 86.5079L37.5526 87.0574L39.5011 87.9731L40.5049 88.4615L42.6305 89.3773L44.0476 90.0488L46.1142 90.8425L47.8855 91.5751L49.0074 92.0024L51.2511 92.7961L53.3767 93.5287L56.2109 94.3223L57.4508 94.6886L58.8089 95.116L59.6945 95.3602L60.1669 95.6654L60.2259 95.9707L59.9307 96.2759L59.6945 96.398H58.9269L57.3327 96.1538L55.3252 95.7875L53.1996 95.4823L50.9559 95.0549L48.7712 94.6276L47.236 94.3223L44.8152 93.895L42.3943 93.4066L40.0325 92.7961L37.0803 92.0635L35.5451 91.5751L34.3642 91.1477L32.2976 90.293L29.1682 88.9499L27.8102 88.3394L26.0979 87.4847L24.858 86.8742L23.559 86.1416L21.9648 85.2259L21.02 84.6154L19.9572 83.9438L18.1859 82.7228L17.1231 81.9292L16.0012 81.0745L15.2336 80.464L14.5841 79.9145L13.9937 79.4261L13.108 78.6325L12.3404 77.8999L11.75 77.3504L11.1005 76.6789L10.6281 76.2515L10.0967 75.7021V75.58H9.97861L9.5653 75.0916L8.79771 74.2369L8.2663 73.5653L7.61681 72.7717L7.14445 72.1612L6.49495 71.3065L5.9045 70.4518L5.25501 69.475L4.66456 68.5592L3.71984 66.9719L3.12939 65.873L2.24371 64.1026L1.59422 62.6374L0.944721 60.928L0.531405 59.8291L0.295225 58.8523L0.11809 57.6313L0 56.105V54.0904L0.177135 51.4652L0.413315 49.6948L0.70854 48.0464L1.77135 43.5897L2.3618 41.514L3.07034 39.4383L3.71984 37.5458L4.13315 36.569L4.78265 34.9206L5.13692 34.0049L5.72737 32.906L6.02259 32.4176L6.554 31.1355L7.02636 30.1587L7.38063 29.7314Z" fill="#E3E3E3"/>
<path d="M73.7466 0H74.9275L76.9941 0.1221L78.8245 0.3663L80.5368 0.732601L82.131 1.221L83.3119 1.64835L84.788 2.25885L86.6184 3.1746L87.9174 3.96825L88.9802 4.70085L90.1021 5.55556L90.8697 6.22711L92.3458 7.75336L92.9953 8.60806L93.7629 9.70696L94.6486 11.2332L95.4161 12.6984L96.3018 14.7131L96.8332 16.1783L97.3056 17.7045L97.9551 20.3907L98.4274 23.0159L98.6046 24.42L98.6636 25.2747V28.6935L98.4865 30.6471L98.0141 33.7607L97.7189 35.2259L97.3056 36.569L97.1875 36.7521H97.0694L97.0104 36.569L96.9513 35.1038L96.8923 33.1502L96.597 30.5861L96.3018 29.1819L95.5933 25.9463L95.1209 23.7485L94.5895 21.7338L93.881 19.536L93.2315 17.8266L92.4639 16.2393L91.6963 14.8962L90.9287 13.7363L90.2792 12.8205L89.5707 11.9658L89.2164 11.5995V11.4774H89.0983L88.2126 10.5617L87.6222 10.0733L86.4413 9.15751L85.3194 8.42491L84.0795 7.69231L82.9576 7.14286L81.3634 6.53236L80.0644 6.10501L78.5883 5.73871L76.817 5.43346L75.518 5.31136H72.92L71.4439 5.49451L70.2039 5.79976L68.964 6.22711L67.6059 6.83761L66.2479 7.57021L64.6537 8.66911L64.0632 9.15751L63.2366 9.89011L62.6461 10.4396L62.469 10.6227H62.3509V10.7448L61.8786 11.1722L60.9929 12.149L60.2843 12.9426L59.871 13.431L59.1034 14.4689L58.6311 15.2015L57.8045 16.4225L57.3321 17.2772L56.5645 18.5592L55.6198 20.4518L54.9703 21.8559L54.3208 23.3211L54.0256 23.199L52.9037 22.3443L52.1952 21.7949L51.1324 21.0012L50.4829 20.4518L50.4238 20.2686L51.1324 18.7424L51.6047 17.7656L52.3133 16.3614L52.9628 15.2015L53.8484 13.6752L54.557 12.5153L56.0922 10.3175L56.7416 9.52381L57.4502 8.66911L58.0997 7.93651L58.513 7.44811L59.5168 6.41026L59.9891 5.98291L60.6977 5.31136L61.3472 4.7619L62.2328 4.0293L63.3547 3.23565L64.2994 2.62515L65.5394 1.89255L66.8383 1.28205L68.3145 0.732601L69.7906 0.3663L71.0896 0.18315L72.4476 0.0610501L73.7466 0Z" fill="#E3E3E3"/>
<path d="M43.6941 29.4261H45.7017L47.414 29.6093L48.6539 29.9145L49.7758 30.3419L50.8976 30.8913L52.1376 31.6239L53.0232 32.2955L53.8499 32.9671L54.7946 33.8828L56.0936 35.348L56.8612 36.3859L57.4516 37.3016L58.1602 38.4616L58.9868 40.0489L59.6363 41.453L60.2858 43.2235L60.7581 45.1771L61.1714 47.4359L61.4667 49.6948L61.5257 50.3053V52.6862L61.3486 54.3956L60.8172 57.4481L60.4629 59.0354L60.1086 60.1954L59.5772 61.6606L58.7506 63.4921L58.1011 64.7131L57.2745 65.9951L56.625 66.8498L55.9755 67.6435L55.1489 68.5592L54.2632 69.4139L53.6137 69.9634L52.8461 70.5739L51.37 71.4896L50.4253 71.978L49.4215 72.4054L47.5911 72.9548L46.2921 73.2601L45.4064 73.3822H44.6979L42.9265 73.138L40.3876 72.6496L39.4429 72.4664L38.1439 71.978L37.3173 71.4896L36.7268 71.1844L36.1364 70.8181L35.4278 70.3297L34.7783 69.8413L34.365 69.475L33.8926 69.0476L32.6527 67.7656L32.1213 67.094L31.3537 66.0562L30.5861 64.8962L29.9957 63.8584L29.11 62.0879L28.7557 61.2332L28.0472 58.9744L27.5748 57.0818L27.2796 55.4335L27.1025 54.0293L26.9844 52.6862V49.6337L27.1025 47.9243L27.2796 46.4591L27.6339 44.9329L28.1653 43.1624L28.8148 41.2699L29.4643 39.8047L30.3499 38.0953L30.8813 37.1795L31.4718 36.3248L32.2984 35.287L33.1841 34.3102L33.6565 33.8218L34.306 33.2723L35.2507 32.5397L36.4906 31.685L37.8487 30.9524L39.3248 30.3419L40.919 29.8535L42.4542 29.5482L43.6941 29.4261ZM43.517 30.9524L41.9818 31.1966L40.6828 31.5629L39.5019 32.0513L38.321 32.6618L37.3763 33.2723L36.4316 34.0049L35.4869 34.9207L35.1326 35.287V35.4091H35.0145L34.6012 35.8975L33.8926 36.7522L33.1251 37.8511L32.4756 38.8889L31.5899 40.6594L30.9994 42.0025L30.409 43.834L30.0547 45.2992L29.6414 47.6801L29.4643 49.0843L29.4052 49.8169V52.9915L29.5824 54.5177L30.2319 58.0586L30.7042 59.8291L31.0585 60.7448L31.767 62.3932L32.3575 63.6142L33.1251 64.8962L33.6565 65.6288L34.2469 66.4225H34.365L34.4831 66.6667L35.3097 67.5824L36.0183 68.315L36.8449 68.9866L37.6715 69.5971L38.7934 70.2686L40.0333 70.8181L41.6866 71.3675L43.1627 71.7338L44.4027 71.978L45.3474 72.0391L46.5283 71.7949L48.0635 71.2454L49.5396 70.5739L50.8386 69.7192L51.8423 68.9255L52.4328 68.3761L52.728 68.0708L53.2594 67.5824L53.6727 67.094L54.3813 66.1783L55.1489 65.0794L55.5622 64.4689L56.3298 63.1258L56.8612 62.149L57.2745 61.1722L58.0421 58.9133L58.4554 57.7534L58.7506 56.4103L58.9277 54.7619L58.9868 53.602V49.3895L58.8687 47.7412L58.6325 46.0928L58.3963 44.8718L58.0421 43.5898L57.3926 41.7583L56.7431 40.2931L56.1526 39.1331L55.326 37.79L54.7355 36.9353L54.086 36.0806L53.4366 35.287L52.9051 34.6765L52.3147 34.066L51.37 33.3334L50.071 32.4787L49.1263 31.9292L48.1815 31.5018L46.8826 31.1355L45.6426 30.9524H43.517Z" fill="#E3E3E3"/>
<path d="M72.8622 6.59338H75.9326L77.2906 6.71548L78.7077 7.02073L79.7115 7.32598L81.3647 8.05859L82.6637 8.79119L84.9665 10.3785L86.0293 11.1721L86.8559 11.8437L87.6825 12.5763L88.273 13.1257L88.9225 13.7973L89.4539 14.4688L90.2215 15.5067L91.1071 17.094L91.9928 18.8034L92.9966 21.0012L93.6461 22.7106L94.3546 24.9084L94.7679 26.4347L95.1222 27.8999L95.4174 29.6703L95.7717 32.5397L95.8307 33.3333L95.8898 34.9206V36.569H95.7717L95.5946 35.8364L95.3584 34.188L94.9451 32.3565L94.4727 30.464L93.9413 28.5714L93.2918 26.6178L92.8194 25.4579L92.288 24.1758L91.5795 22.5885L90.9891 21.4896L90.2215 20.2075L89.3948 18.9865L88.6273 18.0097L87.9778 17.2161L87.2102 16.4224L86.8559 15.9951L86.3835 15.5677L85.675 14.8962L84.8484 14.2246L84.0217 13.6141L82.8999 12.8815L82.0733 12.3931L81.0695 11.8437L79.2981 11.05L77.8811 10.5006L76.2278 10.0732L74.1022 9.70694L73.0394 9.58484L71.5042 9.52379L69.6148 9.58484L67.6072 9.76799L66.1311 10.0122L65.3045 10.1953H64.9502V10.0732L65.7178 9.58484L66.5444 8.97434L67.4891 8.42489L68.3748 7.99754L70.3823 7.20388L71.5042 6.83758L72.8622 6.59338Z" fill="#E3E3E3"/>
<path d="M40.6826 21.3675H43.1035L44.5796 21.5506L46.1738 21.9169L47.3547 22.3443L48.8309 23.0158L49.7756 23.5042L50.8974 24.2368L51.9012 25.0305L52.5507 25.5799L53.0231 26.1294V26.4957L52.7278 27.1062L52.0783 28.144L51.9012 28.5714L51.665 28.5103L50.1889 27.6556L49.3032 27.1062L47.709 26.3125L46.2919 25.702L44.8748 25.2136L43.3987 24.8473L41.2731 24.481L39.856 24.2979H36.5495L34.9553 24.42L32.0621 24.8473L30.1726 25.2136L29.8184 25.2747L29.9955 25.0915L30.9402 24.5421L32.003 23.9316L33.243 23.3211L34.6601 22.7716L36.0181 22.3443L36.9628 22.039L38.498 21.6727L40.0331 21.4285L40.6826 21.3675Z" fill="#E3E3E3"/>
<path d="M39.6791 30.2198H40.0333L39.9152 30.3419L38.9115 30.8303L38.5572 31.0745L38.262 31.3797L37.6125 31.746L36.4906 32.4786L35.4278 33.3333L34.6602 34.0659L33.7155 34.9817L33.066 35.7143L32.7117 36.2027L32.4165 36.5079L32.0622 36.9963L31.767 37.5458L31.1766 38.4005L30.8223 38.9499L30.468 39.6825L29.8776 40.8425L29.4052 42.0024L28.8738 43.6508L28.4605 45.3602L28.1062 47.1307L27.9881 48.0464L27.8701 50.3663V52.5031L28.0472 54.7009L28.2834 56.4103L28.8738 59.0354L29.4643 60.8669L30.1138 62.3321L30.5861 63.3089L31.2356 64.5299L31.5308 64.8962L31.708 65.3236L32.4756 66.3004L33.007 66.9719L33.4203 67.3993L33.8926 67.8266L34.7783 68.6813L35.1326 68.9866V69.1087L35.3688 69.2308L36.0773 69.8413L36.7858 70.3297L38.2029 71.2454L39.0296 71.7949L39.2657 72.0391L39.4429 72.1001V72.2222L39.7971 72.2833V72.3443L39.3248 72.2833L38.262 71.917L37.022 71.2454L35.723 70.4518L35.1326 70.0244L34.8374 69.9023L33.8926 69.0476L32.6527 67.7656L32.1213 67.094L31.3537 66.0562L30.5861 64.8962L29.9957 63.8584L29.11 62.0879L28.7557 61.2332L28.0472 58.9744L27.5748 57.0818L27.2796 55.4335L27.1025 54.0293L26.9844 52.6862V49.6337L27.1025 47.9243L27.2796 46.4591L27.6339 44.9329L28.1653 43.1624L28.8148 41.2698L29.4643 39.8046L30.3499 38.0952L30.8813 37.1795L31.4718 36.3248L32.2984 35.2869L33.1841 34.3101L33.6565 33.8217L34.306 33.2723L35.2507 32.5397L36.4906 31.685L37.8487 30.9524L39.3248 30.3419L39.6791 30.2198Z" fill="#E3E3E3"/>
<path d="M47.9441 31.3798L48.4755 31.4408L49.184 31.685L50.2468 32.1734L51.4868 32.7839L52.5496 33.5165L53.14 34.066L53.6124 34.4933L54.2619 35.2259L54.9114 36.0806L55.797 37.3016L56.5056 38.4616L57.037 39.4384L57.3322 40.0489V40.171H57.4503L58.0408 41.5751L58.4541 42.7961L58.9264 44.3834L59.3397 46.3981L59.5759 48.1075L59.694 49.8169V52.0757L59.5759 54.5177L59.3988 56.2882L59.1036 57.8144L58.5722 59.707L57.9227 61.4164L57.4503 62.6374L56.7418 63.9805L56.3875 64.5299L55.8561 65.4457L55.3247 66.1783L54.8523 66.8498L54.5571 67.1551L53.9076 67.8877L53.6124 68.254L52.9629 68.8034L52.4315 69.2918L51.3687 70.0244L50.3649 70.6349L48.6526 71.3065L46.9993 71.7949L46.1727 71.9781L45.9365 71.917L48.0621 71.1844L49.5383 70.5129L50.8373 69.6581L51.841 68.8645L52.4315 68.315L52.7267 68.0098L53.1991 67.5824L53.6124 67.094L54.3209 66.1783L55.0885 65.0794L55.5018 64.4689L56.2694 63.1258L56.8008 62.149L57.2141 61.1722L57.9817 58.9133L58.395 57.7534L58.6903 56.4103L58.8674 54.7619L58.9264 53.602V49.3895L58.8083 47.7412L58.5722 46.0928L58.336 44.8718L57.9817 43.5898L57.3322 41.7583L56.6827 40.2931L56.0923 39.1331L55.2656 37.79L54.6752 36.9353L54.0257 36.0806L53.3762 35.287L52.8448 34.6765L52.3134 34.127L51.3687 33.3944L50.0697 32.5397L49.125 31.9903L48.1802 31.5629L47.9441 31.4408V31.3798Z" fill="#E3E3E3"/>
</svg>
