<svg width="180" height="100" viewBox="0 0 180 100" fill="none" xmlns="http://www.w3.org/2000/svg">
<path d="M156.478 0H159.092L160.725 1.32743L162.359 4.42478V7.07965L157.458 17.6991L154.192 23.8938L150.925 29.646L146.678 36.7257L146.025 38.0531H145.371L144.718 39.823L138.184 48.6726L134.591 52.6549L130.671 57.0797L124.464 62.3894L118.91 66.3717L110.417 70.7965L105.19 72.5664L98.9829 73.8938L92.1226 74.3363L85.589 73.8938L77.0954 72.1239L67.295 68.5841L59.4548 64.6018L56.5146 62.8319L57.4947 62.3894L63.3749 65.0443L71.8685 67.6991L77.4221 69.0266L84.9357 69.9115H88.5292L97.3495 69.0266L105.843 66.3717L112.377 63.2743L117.604 59.7345L122.177 56.1947L127.077 51.3274L131.651 46.0177L137.531 38.0531L141.124 31.8584L145.045 24.7788L149.291 15.4867L152.231 8.40708L155.498 0.884956L156.478 0Z" fill="#E3E3E3"/>
<path d="M83.6292 25.6637H92.4496L104.21 28.3186L111.07 30.9734L119.237 34.9557L121.524 36.2832L120.217 36.7256L112.05 33.6283L106.17 31.8584L98.6565 30.531L93.4296 30.0885H89.1828L82.3225 30.9734L74.8089 33.1858L68.9287 35.8407L63.0485 39.3805L58.475 42.9203L54.5548 46.4602L49.328 52.2124L47.3679 54.4248L45.7345 57.0796L43.4478 59.7345L40.5077 64.6018L37.8942 69.0265L33.9741 76.5487L29.0739 87.6106L25.1538 96.9026L24.1737 99.115L23.1937 100H20.9069L18.9469 98.2301L17.6402 96.0177L17.3135 93.3628L19.2735 88.4956L22.5403 81.8584L25.4804 76.1062L29.7273 68.5841L33.6474 62.3894L36.5875 57.9646L42.1411 50.4425L46.7146 45.5752L50.6347 41.5929L57.4949 35.8407L63.7018 31.8584L71.5421 28.3186L78.4024 26.5487L83.6292 25.6637Z" fill="#E3E3E3"/>
<path d="M71.216 16.8142H77.7495L87.2232 18.5841L93.4301 20.354L94.0835 21.239H76.1161L70.5626 22.1239L62.3956 24.7788L56.1887 27.8762L50.9619 31.416L45.735 35.3983L41.1615 39.8231L36.588 44.6903L31.3612 51.3275L27.7677 56.6372L24.5009 62.3894L20.5808 69.4691L16.9873 76.9912L14.3739 82.7434L13.0672 84.9558L11.1071 84.0708L9.14703 81.8585L8.16699 78.3186V75.2213L10.4537 70.354L13.7205 64.6018L16.334 60.177L22.2142 50.885H22.8675L23.5209 49.1151L27.441 43.8054L30.0545 40.708L35.2813 34.9558L40.1815 30.531L45.0817 26.5487L50.9619 23.0089L58.8022 19.4691L65.3357 17.6992L71.216 16.8142Z" fill="#E3E3E3"/>
<path d="M166.932 15.0442L168.892 15.9291L170.525 18.1415L171.505 20.7964V24.3362L169.219 29.646L165.298 36.7256L161.705 42.4778L158.438 47.3451L156.151 50.8849L152.231 56.1946L145.044 64.1592L138.838 69.9114L132.304 74.7787L125.77 78.3185L117.93 81.4159L108.783 83.1858H103.23L95.0626 81.8584L87.8757 80.0884L84.9355 79.2035V78.3185L91.7958 78.761H103.883L110.416 77.4336L117.93 74.7787L124.137 71.6814L129.691 68.1415L136.877 61.9468L140.144 58.407L146.678 50.4424L150.925 44.6902L153.865 39.823L158.438 31.8583L161.052 26.5486L165.625 16.8141L166.932 15.0442Z" fill="#E3E3E3"/>
<path d="M62.7192 5.7522H69.2528L72.8463 6.63715L73.8263 7.52211L64.6793 8.84954L57.1657 11.0619L51.9388 13.7168L45.7319 18.1416L41.4851 21.6814L34.9515 27.8761L30.378 33.1858L27.7646 36.2832L26.7846 36.7256V37.6106L24.1711 40.708L20.5777 45.5752L18.2909 49.115L15.6775 52.6549L13.0641 57.0796L10.124 61.5044L8.16389 65.0442L6.5305 65.9292L4.24374 63.2743L2.61035 58.8495L2.93703 56.1947L5.22378 52.2124L9.14392 46.0177L14.6975 38.4956L18.2909 34.5133L22.5377 30.0885L27.4379 25.2212L32.3381 20.7964L38.545 15.9292L46.3853 11.0619L52.2655 8.40706L60.1058 6.19468L62.7192 5.7522Z" fill="#E3E3E3"/>
<path d="M172.158 34.0708L173.792 34.5133L176.079 38.0531L177.059 40.2655V43.3628L174.119 48.2301L170.198 54.4248L164.972 61.5044L161.378 65.4867L157.131 69.9115L153.538 73.4513L147.984 78.7611L140.471 84.5133L133.937 88.4956L127.077 91.5929L121.197 93.3628L119.237 93.8053L113.356 94.2478L108.129 93.8053L106.496 93.3628L107.476 92.4779L116.95 90.708L123.81 88.0531L128.71 85.3982L136.224 80.0885L141.451 75.2212L144.064 72.5664L147.658 68.5841H148.311V67.6991L151.578 64.1593L155.825 58.8496L160.398 52.6549L162.685 49.115L165.298 45.1327L168.238 40.2655L170.852 36.2832L172.158 34.0708Z" fill="#E3E3E3"/>
<path d="M48.0218 0H53.5753L52.5953 0.884956L43.7749 3.9823L38.8748 6.63717L33.3212 10.6195L27.1143 16.3717L22.8675 20.7965L18.294 26.1062L14.3739 30.9735L9.47368 37.6106L7.18693 41.1504L3.59346 46.4602L1.96007 49.115L0.980036 48.2301L0 43.8053V41.1504L2.28675 36.2832L6.53357 29.646L13.7205 19.9115L18.294 15.0442L23.1942 10.6195L29.0744 6.19469L35.2813 3.09735L41.8149 0.884956L48.0218 0Z" fill="#E3E3E3"/>
<path d="M177.713 50.8849H178.367L179.673 54.8672L180 57.9646L178.693 61.0619L173.467 69.9115L166.933 78.7611L162.359 83.6283L158.439 87.6106L153.539 91.5929L148.639 94.6903L143.085 97.3451L134.918 99.5575L130.998 100H126.425L126.751 99.115L133.612 96.9027L138.512 94.6903L144.065 91.1504L148.966 87.1681L154.846 81.4159L159.419 76.1062L163.013 72.1239L169.546 63.2743L171.833 59.7345L175.427 54.4248L177.713 50.8849Z" fill="#E3E3E3"/>
</svg>
