<svg width="100" height="100" viewBox="0 0 100 100" fill="none" xmlns="http://www.w3.org/2000/svg">
<g clip-path="url(#clip0_2110_11)">
<path d="M50.875 0.75H53.75L54.4375 0.875L54.875 1.125L55.3125 1.625L55.5 2.125V2.75L55 9.75L54.5 17L54.125 22.0625L54 24L53.875 24.875L53.5625 25.375L53.25 25.6875L52.75 25.9375L52.4375 26L50 26.125L48.25 26.3125L46.1875 26.6875L44.5 27.125L42.8125 27.6875L41.3125 28.3125L39.75 29.0625L38.625 29.6875L37.4375 30.4375L36.3125 31.25L35.6875 31.75L34.875 32.4375L34.375 32.875L33.625 33.5625L33.1875 34L32.75 34.5L32 35.375L31.25 36.375L30.125 38.0625L29.375 39.375L28.6875 40.75L27.875 42.875L27.375 44.625L27 46.4375L26.8125 48L26.75 49V51.25L26.875 52.75L27.125 54.375L27.5 56L28.125 58L28.875 59.75L29.5 61L30.125 62.0625L30.875 63.25L31.6875 64.3125L32.1875 64.9375L32.9375 65.8125L33.625 66.5625L34.0625 67L34.5625 67.4375L35.4375 68.1875L36.6875 69.125L37.9375 70L39.4375 70.875L40.375 71.375L41.625 71.9375L43.25 72.5625L45.0625 73.125L46.625 73.5L48.5 73.8125L49.5 73.9375L52.5 74.125L53.125 74.4375L53.5625 74.9375L53.8125 75.5625L53.875 76L53.9375 78.375L54.1875 84.625L54.375 89.8125L54.625 96.125V98.1875L54.3125 98.75L53.875 99.125L53.4375 99.375H49.5L45.625 99L43.4375 98.6875L40.75 98.1875L38.8125 97.75L36.9375 97.25L34.5 96.5L32.4375 95.75L30.3125 94.875L28.5625 94.0625L26.3125 92.9375L24.8125 92.0625L23.5 91.3125L20.875 89.5625L19.6875 88.6875L18.875 88.0625L17.5 86.9375L16.625 86.1875L15.875 85.5L15.5 85.1875V85.0625L15.25 84.9375L14.625 84.3125L14.1875 83.9375L13.75 83.4375L12.875 82.5625L12.4375 82.0625L11.875 81.4375L11.4375 80.9375L10.75 80.125L10.0625 79.25L9.5 78.5L8.6875 77.375L7.9375 76.25L7.25 75.1875L6.0625 73.1875L5.4375 72.0625L4.9375 71.0625L4.125 69.375L3.375 67.625L2.5625 65.4375L1.875 63.3125L1.25 60.9375L0.75 58.625L0.4375 56.75L0.125 54.125L0 52.625V47.4375L0.3125 44.375L0.6875 41.875L1.125 39.6875L1.75 37.25L2.5625 34.6875L3.25 32.8125L4 31L4.875 29.125L5.5 27.9375L6.25 26.5625L7.25 24.9375L8.125 23.5625L9 22.3125L9.75 21.3125L10.375 20.5L11.0625 19.625L11.5625 19.0625L12 18.5625L12.5625 17.9375L13.25 17.1875L13.6875 16.75L14.125 16.25L14.6875 15.6875H14.8125V15.5625L15.3125 15.125L15.9375 14.5L16.625 13.9375L17.0625 13.5L17.9375 12.8125L18.6875 12.1875L19.5 11.5625L20.6875 10.6875L21.9375 9.8125L23 9.125L24.4375 8.25L26 7.375L27.375 6.625L28.75 5.9375L30.5625 5.125L32.0625 4.5L34.4375 3.625L36.875 2.875L39.5 2.1875L42.25 1.625L44.5625 1.25L46.75 1L49.25 0.8125L50.875 0.75Z" fill="#E3E3E3"/>
<path d="M51.6875 41.0625H54.875L61.75 41.25H68.5L75.0625 41.0625H77.75L79.625 41.1875L81.1875 41.4375L82.625 41.8125L83.875 42.3125L84.875 42.8125L86 43.4375L87.125 44.1875L88 44.8125L89.0625 45.625L90.0625 46.4375L90.9375 47.125L91.875 47.9375L93.625 49.4375L93.8125 49.5625L93.6875 49.8125L92.5 50.6875L90.75 52L89.75 52.8125L88.9375 53.4375L88.25 54L87.4375 54.6875L86.75 55.25L85.6875 56.125L84.75 56.875L83.875 57.4375L83 57.875L81.9375 58.1875L80.5 58.375H65.3125L60.625 58.4375L57.875 58.5H52.5625L50.25 58.375L48.3125 58.125L46.75 57.8125L45.8125 57.5L44.8125 57.0625L44.125 56.625L43.3125 55.9375L42.8125 55.3125L42.3125 54.4375L41.9375 53.5L41.625 52.25L41.4375 50.5625V48.6875L41.6875 46.875L41.9375 45.875L42.375 44.875L43 43.875L43.875 43L44.75 42.4375L45.625 42L46.5625 41.6875L48 41.375L49.3125 41.1875L50.0625 41.125L51.6875 41.0625Z" fill="#E3E3E3"/>
<path d="M88.8125 64.125H93.875L95.75 64.25L97.3125 64.5L98.375 64.8125L99.0625 65.1875L99.5 65.625L99.75 66.3125V67.6875L99.4375 69.125L98.8125 70.8125L98.125 72.3125L97.375 73.75L96.6875 74.9375L95.875 76.25L95.125 77.375L94.375 78.4375L93.5 79.625L92.8125 80.5L92 81.5L91.5 82.125L89.875 84L89.375 84.5L88.9375 85L86.3125 87.625L85.8125 88.0625L85.0625 88.75L84.5625 89.1875L83.5625 90L82.625 90.75L81.4375 91.625L80 92.625L78.6875 93.4375L77.375 94.1875L75.9375 94.9375L74.1875 95.6875L72 96.4375L70.125 96.9375L69.375 97.0625H68.3125L67.625 96.8125L67.1875 96.375L66.875 95.625L66.6875 94.875L66.5625 93.75V89.1875L66.875 80.5625L67 75.9375L67.1875 74.8125L67.625 73.5L68.3125 72.0625L68.9375 71.0625L69.75 69.9375L70.5625 69L71.875 67.6875L72.75 67L73.4375 66.5L74.4375 65.875L75.75 65.1875L76.9375 64.75L78.1875 64.4375L79 64.3125L83.5625 64.25L88.8125 64.125Z" fill="#E3E3E3"/>
<path d="M68.9375 3.4375L70.3125 3.5625L71.8125 3.9375L73.3125 4.5L74.5625 5.0625L75.5625 5.5625L77 6.3125L78.375 7.125L79.75 8L81.3125 9.0625L82.375 9.8125L83.6875 10.8125L84.5625 11.5L85.4375 12.25L86.125 12.8125L87.0625 13.625L88.6875 15.125L89.5625 16L90 16.375L90.4375 16.875L90.9375 17.375L91.375 17.875L92.125 18.6875L92.6875 19.375L93.4375 20.25L94.125 21.125L95 22.3125L96 23.8125L96.6875 24.9375L97.3125 26.0625L97.9375 27.25L98.625 28.875L99.25 30.625L99.5625 31.75L99.75 32.6875V33.75L99.5 34.375L99.0625 34.8125L98.25 35.125L97.6875 35.25L96 35.375H94.4375L85.3125 35L80.75 34.875L76.8125 34.8125L75.6875 34.625L74.375 34.1875L73.375 33.6875L72.375 33.125L71.375 32.375L70.5 31.625L69.8125 30.9375L69.125 30.0625L68.5625 29.25L67.9375 28.1875L67.375 26.875L67 25.625L66.8125 24.6875L66.6875 23.125L66.625 20.0625L66.375 14.0625L66.3125 12.625V8.75L66.4375 7.25L66.625 5.9375L66.9375 4.9375L67.3125 4.1875L67.5625 3.875L68.1875 3.5625L68.9375 3.4375Z" fill="#E3E3E3"/>
<path d="M88.8125 64.125H93.875L95.75 64.25L97.3125 64.5L98.375 64.8125L99.0625 65.1875L99.5 65.625L99.75 66.3125V67.6875L99.4375 69.125L98.8125 70.8125L98.125 72.3125L97.375 73.75L96.6875 74.9375L95.875 76.25L95.125 77.375L94.375 78.4375L93.5 79.625L92.8125 80.5L92 81.5L91.5 82.125L89.875 84L89.375 84.5L88.9375 85L86.3125 87.625L85.8125 88.0625L85.0625 88.75L84.5625 89.1875L83.5625 90L83.5 89.8125L83.125 89.9375L82.875 90.125L82.1875 90.1875L82.3125 90.0625L82 90L81.8125 90.0625L81.625 89.9375V89.8125H81.5L81.25 89.1875V88.6875L81.0625 88L81 87.0625L80.875 87L81 86.3125H80.875L80.75 85.375L80.5625 84.625L80.4375 84.0625L80.3125 83.8125L80.1875 83.1875L80.125 82.8125V82.3125L80.0625 82.1875V80.1875L79.9375 79.5625L80 79L79.9375 77.9375L79.8125 77.4375L79.875 77V75.9375L79.75 75.5L79.875 75.25V74L79.9375 73.375L79.875 73.3125L79.9375 72.5625L79.875 72.1875L79.9375 72.0625H80.0625V71.5L80.25 70.625L80.3125 69.875L80.375 69.625L80.5 68.625L80.5625 67.75L80.5 67.625L80.5625 67.0625L80.375 66.375L80.4375 65.75L80.75 65.1875L80.875 64.9375L81.0625 64.75L81.3125 64.625L81.25 64.5L81.6875 64.375L83.125 64.3125L83.5625 64.25L88.8125 64.125Z" fill="#E3E3E3"/>
<path d="M51.6875 41.0625H54.875L61.75 41.25L63.125 41.3125L63.0625 41.5625L63 41.75L63.125 41.8125V41.9375L63 42.0625L62.75 42.5625L62.5 42.5V43.5H62.375L62.3125 43.8125L62.5 43.875L62.625 44.5625L62.5625 44.9375L62.625 45.25L62.6875 45.9375L62.4375 46.625L62.25 47.5625L62.125 48.375L62.0625 48.75L62 49L62.0625 49.4375L62.1875 49.75L62 49.9375V50.1875L62.125 50.25L62.25 50.4375V50.9375L62.375 51.5625L62.625 52L62.75 52.5L62.9375 53.0625L63.0625 53.3125L63.125 54.5L63.1875 54.8125L63.25 55L63.3125 55.75L63.5625 56.25L63.75 56.875L63.8125 57.0625V57.5L64 57.5625V57.875L63.6875 58V58.125L64.4375 58.1875L66.1875 58.25V58.3125L65.3125 58.375L60.625 58.4375L57.875 58.5H52.5625L50.25 58.375L48.3125 58.125L46.75 57.8125L45.8125 57.5L44.8125 57.0625L44.125 56.625L43.3125 55.9375L42.8125 55.3125L42.3125 54.4375L41.9375 53.5L41.625 52.25L41.4375 50.5625V48.6875L41.6875 46.875L41.9375 45.875L42.375 44.875L43 43.875L43.875 43L44.75 42.4375L45.625 42L46.5625 41.6875L48 41.375L49.3125 41.1875L50.0625 41.125L51.6875 41.0625Z" fill="#E3E3E3"/>
<path d="M82.25 9.75L82.8125 10.125L84.5625 11.5L85.4375 12.25L86.125 12.8125L87.0625 13.625L88.6875 15.125L89.5625 16L90 16.375L90.4375 16.875L90.9375 17.375L91.375 17.875L92.125 18.6875L92.6875 19.375L93.4375 20.25L94.125 21.125L95 22.3125L96 23.8125L96.6875 24.9375L97.3125 26.0625L97.9375 27.25L98.625 28.875L99.25 30.625L99.5625 31.75L99.75 32.6875V33.75L99.5 34.375L99.0625 34.8125L98.25 35.125L97.6875 35.25L96 35.375H94.4375L85.3125 35L83.125 34.9375L83.375 34.8125L82.6875 34.75L81.875 34.6875V34.5625H82.25V34.375L82.4375 34.1875L82.375 33.625L82.3125 33.1875L82.1875 32.9375L82.125 32.0625L82.1875 31.5L82.0625 30.9375L82 30.5625L81.9375 29.375L81.8125 28.875L81.875 28L81.8125 27.4375L81.6875 26.8125L81.625 25.625V24.4375L81.5625 24.0625L81.625 23.75L81.5625 23.3125L81.625 22.625V21.625L81.6875 21.3125V20.5625L81.75 20.4375L81.625 20.375L81.6875 20L81.8125 19.75V19.3125L82.0625 18.75L82.125 18.4375L82.1875 18L82.4375 17.5L82.625 16.9375L82.5625 16.75L82.8125 16.4375L82.875 15.8125L83.0625 15.5625L83.125 14.875L83 14.25L82.6875 13L82.625 11.875L82.6875 11.625L82.875 11.125L82.625 10.5L82.5 10.25H82.375L82.3125 10L82.25 9.75Z" fill="#E3E3E3"/>
<path d="M78.5625 41.125L80.125 41.25L81.5 41.5L82.8125 41.875L84 42.375L85 42.875L86 43.4375L87.125 44.1875L88 44.8125L89.0625 45.625L90.0625 46.4375L90.9375 47.125L91.875 47.9375L93.625 49.4375L93.8125 49.5625L93.6875 49.8125L92.5 50.6875L90.75 52L89.75 52.8125L88.9375 53.4375L88.25 54L87.4375 54.6875L86.75 55.25L85.6875 56.125L84.75 56.875L83.875 57.4375L83 57.875L81.9375 58.1875L80.5 58.375H78.3125V58.3125L79.1875 58.25L79.75 58.1875L80.125 57.875L79.8125 57.25L79.625 56.6875V56.1875L79.5 55.875L79.375 53.625L79.1875 52.0625L79.0625 48.4375V44.5625L79.125 44.375L79.0625 43.375V42.125L79.1875 41.75L78.875 41.5V41.375H78.6875V41.25L78.5 41.1875L78.5625 41.125Z" fill="#E3E3E3"/>
<path d="M94.5625 64.1875L95.75 64.25L97.3125 64.5L98.375 64.8125L99.0625 65.1875L99.5 65.625L99.75 66.3125V67.6875L99.4375 69.125L98.8125 70.8125L98.125 72.3125L97.375 73.75L96.6875 74.9375L95.875 76.25L95.125 77.375L94.375 78.4375L93.875 79.125L93.625 79.0625L93.5 79.1875L93.375 79.125L93.3125 78.625L93.25 78.3125L93.0625 77.8125L92.875 74.75L92.8125 72.6875L92.6875 70.4375L92.625 69.9375V68.4375L92.5 66.6875L92.375 65.75V65L92.4375 64.75L92.25 64.3125L92.6875 64.25L94.5625 64.1875Z" fill="#E3E3E3"/>
<path d="M78.5625 41.125L80.125 41.25L81.5 41.5L82 41.625L81.75 41.75L82.5 42.375L82.5625 42.625V44.4375L82.625 44.875V45.5625L82.75 47.5L82.8125 49.8125V51.0625L82.875 51.625L82.9375 52.5625V53.8125L83.0625 54.4375L83.125 55.5L83.0625 55.5625V56.125L83.25 56.75L83.3125 57.5L83.9375 57.25L84.25 57L84.4375 57.0625L83.875 57.4375L83 57.875L81.9375 58.1875L80.5 58.375H78.3125V58.3125L79.1875 58.25L79.75 58.1875L80.125 57.875L79.8125 57.25L79.625 56.6875V56.1875L79.5 55.875L79.375 53.625L79.1875 52.0625L79.0625 48.4375V44.5625L79.125 44.375L79.0625 43.375V42.125L79.1875 41.75L78.875 41.5V41.375H78.6875V41.25L78.5 41.1875L78.5625 41.125Z" fill="#E3E3E3"/>
<path d="M94.5625 64.1875H95L95.0625 64.3125L94.6875 64.4375L95.0625 64.75L95 65.625L95.0625 66.5L95.1875 66.9375V67.8125H95.3125V69L95.375 70.5L95.5 71.4375L95.4375 73.625V74.6875L95.8125 75.8125V76.125H95.6875L95.625 76.625L95.125 77.375L94.375 78.4375L93.875 79.125L93.625 79.0625L93.5 79.1875L93.375 79.125L93.3125 78.625L93.25 78.3125L93.0625 77.8125L92.875 74.75L92.8125 72.6875L92.6875 70.4375L92.625 69.9375V68.4375L92.5 66.6875L92.375 65.75V65L92.4375 64.75L92.25 64.3125L92.6875 64.25L94.5625 64.1875Z" fill="#E3E3E3"/>
<path d="M86.8125 44.25L87.3125 44.3125L88.5 45.1875L89.375 45.875L90.375 46.6875L91.0625 47.25L91.875 47.9375L93.625 49.4375L93.8125 49.5625L93.6875 49.8125L92.5 50.6875L90.75 52L89.75 52.8125L88.9375 53.4375L88.25 54L87.625 54.5L87.375 54.4375L87.4375 54L87.5625 53.25V52.0625L87.625 51V48.1875L87.375 46.5L87.125 45.75L86.875 44.75L86.75 44.3125L86.8125 44.25Z" fill="#E3E3E3"/>
<path d="M84.8125 43.0625L85.25 43.125L85.6875 43.25L86.875 44L87.1875 44.3125H86.8125L87 44.875L87.25 46L87.4375 46.5L87.6875 48.1875V51.4375L87.625 52.0625V53.3125L87.5 54L87.375 54.4375L87.5625 54.5L87.25 54.8125L86.75 55.0625L85.9375 55.6875L85.3125 56.125H85.25V55.125L85.1875 54.5V50.5L85.125 49.0625V47.125L85.0625 45.875L84.875 45.1875L84.8125 45.0625V43.5625L84.75 43.125L84.8125 43.0625Z" fill="#E3E3E3"/>
<path d="M78.5625 41.125L80.125 41.25L80.5625 41.3125V41.375L80.25 41.4375L80.3125 41.625L80.625 41.875L80.6875 42.5625L80.625 43.6875L80.6875 44.125V45.25L80.75 48.5L80.8125 50.375L80.9375 52.3125L81.0625 53.3125L81.25 55.875L81.375 56.8125L81.6875 57.5625V57.6875L80.9375 58.1875L81 58.3125L80.5 58.375H78.3125V58.3125L79.1875 58.25L79.75 58.1875L80.125 57.875L79.8125 57.25L79.625 56.6875V56.1875L79.5 55.875L79.375 53.625L79.1875 52.0625L79.0625 48.4375V44.5625L79.125 44.375L79.0625 43.375V42.125L79.1875 41.75L78.875 41.5V41.375H78.6875V41.25L78.5 41.1875L78.5625 41.125Z" fill="#E3E3E3"/>
<path d="M95.8125 23.9375L96.125 24.25L97 25.75L97.5625 26.6875L97.875 27.3125V27.4375H98L98.5625 28.6875L99.25 30.625L99.5625 31.75L99.75 32.6875V33.75L99.5 34.375L99.0625 34.8125L98.25 35.125L97.6875 35.25L96 35.375H94.4375V35.25L95.8125 35.1875L96.0625 35H96.1875L95.9375 33.875V32.375L96 32.1875V30.4375L96.0625 30.3125L96.125 29.3125V27.1875L96.0625 26.3125V25.4375L95.75 24.125L95.8125 23.9375Z" fill="#E3E3E3"/>
<path d="M96 64.375H96.6875L98 64.6875L98.75 65L99.25 65.375L99.5625 65.75L99.75 66.3125V67.6875L99.4375 69.125L98.8125 70.8125L98.5 71.5H98.375L98.25 71.8125L97.4375 73.25L97.1875 73.5L97.0625 73.375L97 72.875V68.5L96.875 66.6875L96.625 65.0625L96.5625 64.75L96.3125 64.625L96 64.5V64.375Z" fill="#E3E3E3"/>
<path d="M92.4375 64.25H93.5625L93.3125 64.375L93.375 64.625H93.5625L93.625 64.9375L93.5 65.4375L93.75 66.9375L93.8125 67.9375L93.875 69.9375L93.9375 70.5625L94.0625 73.9375H94.1875V75.875L94.3125 76.6875L94.625 77.25V77.5625H94.75L94.6875 78L93.875 79.125L93.625 79.0625L93.5 79.1875L93.375 79.125L93.3125 78.625L93.25 78.3125L93.0625 77.8125L92.875 74.75L92.8125 72.6875L92.6875 70.4375L92.625 69.9375V68.4375L92.5 66.6875L92.375 65.75V65L92.4375 64.75L92.25 64.3125L92.4375 64.25Z" fill="#E3E3E3"/>
<path d="M95.8125 23.9375L96.125 24.25L96.9375 25.625V25.75H96.8125L97.25 27L97.4375 27.6875V32L97.375 32.625L97.4375 33.5625L97.375 33.875L97.5 34.4375L97.5625 34.625V34.8125L97.125 35.1875L96.625 35.25L96.5625 35.3125L96 35.375H94.4375V35.25L95.8125 35.1875L96.0625 35H96.1875L95.9375 33.875V32.375L96 32.1875V30.4375L96.0625 30.3125L96.125 29.3125V27.1875L96.0625 26.3125V25.4375L95.75 24.125L95.8125 23.9375Z" fill="#E3E3E3"/>
<path d="M97.625 64.6875L98.1875 64.75L99.0625 65.1875L99.5 65.625L99.75 66.3125V67.6875L99.4375 69.125L98.8125 70.8125L98.5 71.5L98.25 71.4375L98.3125 71L98.5625 70.25L98.6875 69.6875V68.5L98.4375 67.125L98.3125 65.5625L98.1875 65.25L97.875 64.875L97.625 64.75V64.6875Z" fill="#E3E3E3"/>
<path d="M97.8125 27.5L98.0625 27.5625L98.625 28.875L99.25 30.625L99.5625 31.75L99.75 32.6875V33.75L99.5 34.375L99.0625 34.8125L98.25 35.125L97.875 35.1875L97.8125 35.0625L98.4375 34.875L98.875 34.25L98.9375 33.5H99.0625L98.9375 33.125V31.5L98.6875 30.25L98.3125 29.125L98.0625 28.5L97.8125 27.6875V27.5Z" fill="#E3E3E3"/>
<path d="M80.1875 64.6875H80.375L80.6875 65L80.625 65.1875L80.3125 65.5L80.125 65.75H80.1875V66.25H80L80.125 66.875L80.0625 67.0625V67.75L80 68.5H79.9375L79.8125 68.0625L79.75 67.875L79.625 67.3125L79.5625 66.9375L79.375 66.0625L79.5 65.6875L79.6875 65.25L80.0625 64.8125L80.1875 64.6875Z" fill="#E3E3E3"/>
<path d="M81.9375 11.875L82.0625 12L82.125 12.3125H82.25L82.1875 12.5625L82.4375 13.5L82.5625 14.0625L82.625 14.5625L82.5 14.8125L82.4375 15.6875L82.25 15.875L82.125 15.8125V15.375H82.25V15.1875H82.375L82.3125 14.9375L82.125 14.875L82.0625 14.3125L81.875 14L81.9375 13.625L81.875 13.3125V13.1875H82L81.75 12.0625L81.9375 11.875Z" fill="#E3E3E3"/>
<path d="M98.375 71.5L98.4375 71.6875L97.6875 73.1875L96.875 74.625L96.6875 74.8125L96.625 74.625L97.375 73.375L97.5625 72.9375L98.25 71.6875L98.375 71.5Z" fill="#E3E3E3"/>
<path d="M80.375 87.75L80.5 87.8125L80.625 88.375L80.6875 89.375H80.4375L80.3125 88.75V87.9375L80.375 87.75Z" fill="#E3E3E3"/>
<path d="M97.5625 73.125L97.625 73.25L96.8125 74.75H96.625L96.75 74.4375L97.5 73.1875L97.5625 73.125Z" fill="#E3E3E3"/>
<path d="M82.375 15.125H82.4375V15.6875L82.25 15.875L82.125 15.8125V15.375H82.25V15.1875L82.375 15.125Z" fill="#E3E3E3"/>
<path d="M86.9375 54.875L87.125 54.9375L86.3125 55.625H86.1875L86.3125 55.375L86.9375 54.875Z" fill="#E3E3E3"/>
<path d="M86.0625 55.5H86.1875L86.125 55.75L85.625 56.1875H85.5L85.5625 56L85.875 55.6875L86.0625 55.5Z" fill="#E3E3E3"/>
</g>
<defs>
<clipPath id="clip0_2110_11">
<rect width="100" height="100" fill="white"/>
</clipPath>
</defs>
</svg>
