<svg width="100" height="100" viewBox="0 0 100 100" fill="none" xmlns="http://www.w3.org/2000/svg">
<path d="M92.7873 0H93.762L93.9569 1.24777L94.5417 10.5169L95.5164 19.9643L97.2708 34.5811L99.2201 47.4153L99.9998 52.5847V53.2977L98.0505 53.6542L82.456 55.615L68.6159 57.5758L67.4463 57.9323V61.1408L67.2513 71.3012L67.0564 75.0446L66.2767 81.6399L65.4969 84.6702L64.5223 86.8093L63.1578 88.7701L61.4034 90.5526L59.4541 92.1569L56.725 93.5829L53.6061 94.6524L38.9863 97.861L34.5029 98.9305L31.384 100L30.9941 99.8217L33.1383 98.574L35.6724 96.4349L37.6218 94.1176L39.1812 91.4438L40.3508 88.5918L41.3255 84.6702L41.9103 78.9661L42.3001 71.6578L42.1052 62.2103L40.1559 62.3886L32.7485 64.1711L27.0955 65.7754L22.0272 67.3797L16.5692 69.3405L12.6705 70.9447L9.9415 72.3708L7.40739 74.1533L5.84794 75.7576L4.28849 77.8966L3.31383 80.7487L2.92397 81.9964L2.53411 81.8182L1.16959 71.4795L0 63.2799V60.0713L0.779726 56.8627L2.14425 54.0107L3.50877 52.0499L5.26315 50.2674L7.21246 48.8414L9.9415 47.4153L15.7894 45.098L21.8323 42.959L32.5535 39.9287L38.9863 38.3244H39.5711L37.037 19.4296L36.0623 9.80392V8.7344L36.4522 8.3779L41.3255 7.48663L48.5379 6.41711L67.6412 3.92157L69.2006 3.74332L84.7952 1.24777L92.7873 0Z" fill="#E3E3E3"/>
<path d="M92.7875 0H93.7621L93.9571 1.24777L94.5419 10.5169L95.5165 19.9643L97.2709 34.5811L99.2202 47.4153L99.9999 52.5847V53.2977L98.0506 53.6542L82.4561 55.615L68.616 57.5758H67.4464L67.2515 57.3975L66.0819 42.6025L65.4971 34.4028V33.3333L67.4464 32.9768L70.1754 32.4421L69.9805 28.5205L68.8109 11.0517L68.616 3.92157L71.5399 3.38681L84.7953 1.24777L92.7875 0Z" fill="#E3E3E3"/>
<path d="M38.9863 38.3244H39.766L40.5457 45.2763L41.7153 56.5063L41.9103 59.0018V62.0321L33.3333 63.9929L26.5107 65.9537L19.883 68.0927L13.4503 70.5882L10.5263 72.0143L7.40739 74.1533L5.84794 75.7576L4.28849 77.8966L3.31383 80.7487L2.92397 81.9964L2.53411 81.8182L1.16959 71.4795L0 63.2799V60.0713L0.779726 56.8628L2.14425 54.0107L3.50877 52.0499L5.26315 50.2674L7.21246 48.8414L9.9415 47.4153L15.7894 45.0981L21.8323 42.959L32.5535 39.9287L38.9863 38.3244Z" fill="#E3E3E3"/>
</svg>
