<svg width="100" height="100" viewBox="0 0 100 100" fill="none" xmlns="http://www.w3.org/2000/svg">
<path d="M22.2222 50L19.2757 47.0535C18.8887 47.4404 18.5817 47.8998 18.3723 48.4053C18.1629 48.9109 18.0551 49.4528 18.0551 50C18.0551 50.5472 18.1629 51.0891 18.3723 51.5947C18.5817 52.1002 18.8887 52.5596 19.2757 52.9465L22.2222 50ZM34.891 1.22048C34.504 0.833542 34.0447 0.526603 33.5391 0.317192C33.0335 0.107782 32.4917 4.07709e-09 31.9444 0C31.3972 -4.07708e-09 30.8554 0.107782 30.3498 0.317192C29.8442 0.526603 29.3849 0.833542 28.9979 1.22048C28.611 1.60742 28.304 2.06679 28.0946 2.57235C27.8852 3.07791 27.7774 3.61977 27.7774 4.16699C27.7774 4.71421 27.8852 5.25607 28.0946 5.76163C28.304 6.26719 28.611 6.72656 28.9979 7.1135L34.891 1.22048ZM42.3611 50L39.4146 47.0535C39.0276 47.4404 38.7206 47.8998 38.5112 48.4053C38.3017 48.9109 38.1939 49.4528 38.1939 50C38.1939 50.5472 38.3017 51.0891 38.5112 51.5947C38.7206 52.1002 39.0276 52.5596 39.4146 52.9465L42.3611 50ZM83.859 97.3906C84.6439 98.1556 85.6985 98.5807 86.7945 98.5737C87.8905 98.5666 88.9396 98.1282 89.7146 97.3532C90.4896 96.5782 90.9281 95.5291 90.9351 94.4331C90.9421 93.3371 90.5171 92.2825 89.7521 91.4976L83.859 97.3906ZM55.0299 1.22048C54.6429 0.833542 54.1835 0.526603 53.678 0.317192C53.1724 0.107782 52.6306 0 52.0833 0C51.5361 0 50.9942 0.107782 50.4887 0.317192C49.9831 0.526603 49.5238 0.833542 49.1368 1.22048C48.3553 2.00195 47.9163 3.06184 47.9163 4.16699C47.9163 5.27214 48.3553 6.33203 49.1368 7.1135L55.0299 1.22048ZM28.9979 92.8865C28.2164 93.668 27.7774 94.7279 27.7774 95.833C27.7774 96.9382 28.2164 97.9981 28.9979 98.7795C29.7794 99.561 30.8393 100 31.9444 100C33.0496 100 34.1095 99.561 34.891 98.7795L28.9979 92.8865ZM16.6667 8.33363H83.3333V0.000352327H16.6667V8.33363ZM91.6667 16.6669V83.3331H100V16.6669H91.6667ZM83.3333 91.6664H16.6667V99.9996H83.3333V91.6664ZM8.33333 83.3331V16.6669H0V83.3331H8.33333ZM16.6667 91.6664C12.0646 91.6664 8.33333 87.9352 8.33333 83.3331H0C0 92.5379 7.46181 99.9996 16.6667 99.9996V91.6664ZM91.6667 83.3331C91.6667 87.9352 87.9354 91.6664 83.3333 91.6664V99.9996C92.5382 99.9996 100 92.5379 100 83.3331H91.6667ZM83.3333 8.33363C87.9354 8.33363 91.6667 12.0649 91.6667 16.6669H100C100 7.46211 92.5382 0.000352327 83.3333 0.000352327V8.33363ZM16.6667 0.000352327C7.46181 0.000352327 0 7.46211 0 16.6669H8.33333C8.33333 12.0649 12.0646 8.33363 16.6667 8.33363V0.000352327ZM25.1687 52.9465L34.891 43.2244L28.9979 37.3313L19.2757 47.0535L25.1687 52.9465ZM34.891 43.2244C46.4896 31.6251 46.4896 12.8197 34.891 1.22048L28.9979 7.1135C37.3431 15.4579 37.3431 28.987 28.9979 37.3313L34.891 43.2244ZM45.3076 52.9465L55.0299 43.2244L49.1368 37.3313L39.4146 47.0535L45.3076 52.9465ZM39.4146 52.9465L83.859 97.3906L89.7521 91.4976L45.3076 47.0535L39.4146 52.9465ZM55.0299 43.2244C66.6285 31.6251 66.6285 12.8197 55.0299 1.22048L49.1368 7.1135C57.4819 15.4579 57.4819 28.987 49.1368 37.3313L55.0299 43.2244ZM19.2757 52.9465L28.9979 62.6687L34.891 56.7757L25.1687 47.0535L19.2757 52.9465ZM28.9979 62.6687C37.3431 71.013 37.3431 84.5421 28.9979 92.8865L34.891 98.7795C46.4896 87.1803 46.4896 68.3749 34.891 56.7757L28.9979 62.6687Z" fill="#E3E3E3"/>
</svg>
