<svg width="100" height="100" viewBox="0 0 100 100" fill="none" xmlns="http://www.w3.org/2000/svg">
<g clip-path="url(#clip0_2102_1205)">
<path fill-rule="evenodd" clip-rule="evenodd" d="M79.1051 70.6055C77.9001 74.0165 73.11 76.8383 69.29 77.6636C66.675 78.2187 63.265 78.6579 51.775 73.8965C38.87 68.5499 20.95 49.5049 20.95 36.8311C20.95 30.3791 24.67 22.8662 31.175 22.8662C34.305 22.8662 34.995 22.9272 36.025 25.3979C37.23 28.3088 40.17 35.4806 40.52 36.2158C41.965 39.2317 39.05 40.9972 36.935 43.623C36.26 44.4132 35.495 45.2679 36.35 46.7383C37.2 48.1787 40.14 52.9703 44.46 56.8164C50.04 61.7879 54.565 63.3751 56.185 64.0503C57.39 64.5504 58.83 64.434 59.71 63.4937C60.825 62.2883 62.21 60.2885 63.62 58.3179C64.615 56.9074 65.8801 56.7313 67.205 57.2314C68.1 57.5415 79.475 62.8242 79.955 63.6694C80.31 64.2846 80.3101 67.1944 79.1051 70.6055ZM50.01 0H49.985C22.42 0 0 22.4268 0 50C0 60.9333 3.52503 71.0767 9.52003 79.3042L3.29002 97.8833L22.505 91.7432C30.41 96.9748 39.845 100 50.01 100C77.575 100 100 77.5732 100 50C100 22.4268 77.575 0 50.01 0Z" fill="#E3E3E3"/>
</g>
<defs>
<clipPath id="clip0_2102_1205">
<rect width="100" height="100" fill="white"/>
</clipPath>
</defs>
</svg>
