<svg width="100" height="100" viewBox="0 0 100 100" fill="none" xmlns="http://www.w3.org/2000/svg">
<g clip-path="url(#clip0_2102_1210)">
<path fill-rule="evenodd" clip-rule="evenodd" d="M100 100H80V65.0049C80 55.4049 75.765 50.0488 68.17 50.0488C59.905 50.0488 55 55.6299 55 65.0049V100H35V35H55V42.3096C55 42.3096 61.275 31.2988 75.415 31.2988C89.56 31.2988 100 39.9305 100 57.7905V100ZM12.21 24.6045C5.46501 24.6045 0 19.0948 0 12.2998C0 5.5098 5.46501 0 12.21 0C18.95 0 24.415 5.5098 24.415 12.2998C24.42 19.0948 18.95 24.6045 12.21 24.6045ZM0 100H25V35H0V100Z" fill="#E3E3E3"/>
</g>
<defs>
<clipPath id="clip0_2102_1210">
<rect width="100" height="100" fill="white"/>
</clipPath>
</defs>
</svg>
