<svg width="100" height="100" viewBox="0 0 100 100" fill="none" xmlns="http://www.w3.org/2000/svg">
<g clip-path="url(#clip0_2090_48)">
<path d="M50.7964 9.91251C32.8933 9.50626 17.0058 21.3531 12.3183 38.6406C12.0902 38.6906 12.5308 38.5594 12.3183 38.6406C-3.82858 49.2688 -4.02233 72.4281 11.2933 84.2313L11.3089 84.2L11.2777 84.3313C16.1777 88.025 22.1339 89.9969 28.2714 89.9781H49.8214L49.9527 90.0906H71.5839C99.4495 90.3188 110.646 54.25 87.5683 38.6406C85.5839 31.3 81.4964 24.7094 75.8183 19.6781L75.6402 19.8563L75.6558 19.6438C68.7714 13.5719 59.9652 10.1219 50.8027 9.90938L50.7964 9.91251ZM49.2995 27.1969C54.4745 27.0188 59.7964 28.7281 63.8183 31.9813C68.8464 36.1813 71.712 42.4313 71.5808 48.975V51.1406C86.2933 50.8469 86.2933 73.0656 71.5808 72.7719H49.9495L49.9183 72.8031V72.6406H28.2714C26.7402 72.6406 25.2277 72.3156 23.8277 71.6813C16.9433 68.5719 15.2995 59.5219 20.637 54.1688C25.9933 48.8313 35.0245 50.475 38.1495 57.3594L50.6995 44.8094C46.5339 39.3719 40.512 35.6469 33.7902 34.3281C33.8714 34.2969 33.9527 34.2313 34.0183 34.2469C37.9558 29.9188 43.4745 27.3781 49.3183 27.2L49.2995 27.1969Z" fill="#E3E3E3"/>
</g>
<defs>
<clipPath id="clip0_2090_48">
<rect width="100" height="100" fill="white"/>
</clipPath>
</defs>
</svg>
