<svg width="100" height="100" viewBox="0 0 100 100" fill="none" xmlns="http://www.w3.org/2000/svg">
<path d="M46.6875 77.575L67.6125 73.875L67.8063 73.8312L57.0438 61.025C53.4344 56.7541 49.8448 52.4665 46.275 48.1625C46.275 48.1 57.3938 17.4812 57.4563 17.375C63.6079 27.9065 69.7204 38.4607 75.7938 49.0375L94.2312 81.0063L94.375 81.25L25.95 81.2437L46.6875 77.575ZM5.625 73.675C5.625 73.6562 10.6938 64.85 16.8938 54.1062L28.1687 34.5625L41.3063 23.5375C48.5312 17.4813 54.4625 12.5 54.4813 12.5C54.4347 12.6849 54.3654 12.8633 54.275 13.0313L40 43.6313L26 73.6812L15.8125 73.6938C10.2062 73.7 5.625 73.6938 5.625 73.675Z" fill="#E3E3E3"/>
</svg>
