<svg width="100" height="100" viewBox="0 0 100 100" fill="none" xmlns="http://www.w3.org/2000/svg">
<path d="M28.1867 48.0438C28.1867 49.275 28.3117 50.275 28.5492 51.0125C28.8117 51.7437 29.1492 52.5437 29.6117 53.4125C29.7593 53.642 29.8394 53.9084 29.843 54.1812C29.843 54.5125 29.643 54.85 29.218 55.1813L27.118 56.5813C26.8659 56.7632 26.5661 56.8675 26.2555 56.8813C25.918 56.8813 25.5867 56.7188 25.2555 56.4188C24.8063 55.9354 24.4044 55.4101 24.0555 54.85C23.6858 54.2087 23.3438 53.5519 23.0305 52.8813C20.4305 55.95 17.1742 57.4875 13.2492 57.4875C10.4555 57.4875 8.22422 56.6812 6.59922 55.0812C4.96797 53.4812 4.13672 51.3438 4.13672 48.675C4.13672 45.8375 5.13672 43.5375 7.16172 41.8C9.19297 40.0625 11.8867 39.2 15.3117 39.2C16.4367 39.2 17.6055 39.3 18.8367 39.4625C20.068 39.6313 21.3367 39.9 22.6617 40.2V37.7625C22.6617 35.225 22.1305 33.4563 21.0992 32.425C20.0367 31.3875 18.2367 30.8875 15.6742 30.8875C14.5117 30.8875 13.318 31.025 12.0867 31.325C10.8634 31.6161 9.66246 31.9942 8.49297 32.4563C8.11539 32.6272 7.72707 32.7733 7.33047 32.8938C7.15861 32.9505 6.97996 32.9842 6.79922 32.9938C6.33047 32.9938 6.09922 32.6563 6.09922 31.9563V30.3188C6.09922 29.7875 6.16172 29.3813 6.33047 29.1563C6.58233 28.8496 6.90373 28.6075 7.26797 28.45C8.42422 27.85 9.82422 27.35 11.4555 26.95C13.0805 26.5125 14.8117 26.3188 16.643 26.3188C20.5992 26.3188 23.493 27.2188 25.3555 29.0188C27.1867 30.8188 28.118 33.5562 28.118 37.2312V48.0438H28.1805H28.1867ZM14.6805 53.1125C15.7742 53.1125 16.9055 52.9125 18.1055 52.5125C19.3055 52.1125 20.368 51.375 21.2617 50.375C21.7976 49.761 22.1848 49.0317 22.393 48.2437C22.593 47.4375 22.7305 46.475 22.7305 45.3375V43.9375C21.721 43.6927 20.6985 43.5049 19.668 43.375C18.6316 43.2409 17.5879 43.1721 16.543 43.1688C14.3117 43.1688 12.6867 43.6063 11.5867 44.5063C10.4867 45.4062 9.96172 46.675 9.96172 48.3438C9.96172 49.9063 10.3555 51.075 11.1867 51.8812C11.9867 52.7125 13.1492 53.1125 14.6805 53.1125ZM41.3867 56.7188C40.7867 56.7188 40.3867 56.6188 40.1242 56.3813C39.8555 56.1813 39.6242 55.7188 39.4242 55.0812L31.6117 29.2875C31.4598 28.8549 31.3591 28.406 31.3117 27.95C31.3117 27.4188 31.5742 27.1188 32.1055 27.1188H35.368C35.993 27.1188 36.4305 27.2188 36.6617 27.45C36.9305 27.65 37.1305 28.1188 37.3305 28.75L42.918 50.8438L48.1055 28.75C48.268 28.0875 48.468 27.65 48.7367 27.45C49.136 27.2056 49.6007 27.09 50.068 27.1188H52.7305C53.3555 27.1188 53.793 27.2188 54.0555 27.45C54.3242 27.65 54.5555 28.1188 54.693 28.75L59.943 51.1125L65.693 28.75C65.7999 28.2662 66.0303 27.8183 66.3617 27.45C66.7492 27.205 67.2043 27.089 67.6617 27.1188H70.7555C71.2867 27.1188 71.5867 27.3875 71.5867 27.95C71.5867 28.1188 71.5492 28.2875 71.5242 28.4875C71.4702 28.7712 71.3907 29.0494 71.2867 29.3188L63.268 55.1125C63.0742 55.7812 62.8367 56.2188 62.5742 56.4188C62.1968 56.6602 61.7527 56.7761 61.3055 56.75H58.4492C57.818 56.75 57.3867 56.65 57.118 56.4188C56.8492 56.1813 56.618 55.75 56.4867 55.0812L51.3305 33.5625L46.2055 55.0563C46.043 55.725 45.843 56.1563 45.5805 56.3875C45.3117 56.625 44.843 56.725 44.2492 56.725H41.3867V56.7188ZM84.1242 57.6187C82.3982 57.6211 80.678 57.4197 78.9992 57.0188C77.3367 56.6188 76.043 56.1813 75.1742 55.6813C74.643 55.3813 74.2805 55.05 74.143 54.7437C74.0163 54.4496 73.9503 54.1328 73.9492 53.8125V52.1125C73.9492 51.4125 74.2117 51.075 74.7117 51.075C74.9158 51.0755 75.1185 51.1092 75.3117 51.175C75.5117 51.2437 75.8117 51.375 76.143 51.5125C77.268 52.0125 78.5055 52.4125 79.7992 52.6813C81.1305 52.9438 82.4242 53.0813 83.7555 53.0813C85.8555 53.0813 87.4805 52.7125 88.6117 51.9813C89.1552 51.6523 89.6017 51.1851 89.9058 50.6274C90.2099 50.0696 90.3608 49.4413 90.343 48.8063C90.3542 48.3775 90.2805 47.9508 90.126 47.5507C89.9715 47.1506 89.7394 46.785 89.443 46.475C88.8492 45.8375 87.718 45.2688 86.0867 44.7375L81.2617 43.2375C78.8367 42.4688 77.0367 41.3313 75.943 39.8313C74.8723 38.4453 74.288 36.7451 74.2805 34.9938C74.2805 33.5938 74.5805 32.3563 75.1742 31.2875C75.7742 30.225 76.5742 29.2875 77.5742 28.55C78.5742 27.7875 79.6992 27.2188 81.0305 26.8188C82.3617 26.4188 83.7555 26.25 85.218 26.25C85.9555 26.25 86.718 26.2813 87.4492 26.3813C88.2117 26.4813 88.9117 26.6188 89.6117 26.7563C90.2742 26.9188 90.9117 27.0813 91.5055 27.2875C92.1055 27.4875 92.568 27.6875 92.9055 27.8875C93.2978 28.0848 93.6398 28.3691 93.9055 28.7188C94.1194 29.0442 94.2224 29.43 94.1992 29.8188V31.3875C94.1992 32.0875 93.9367 32.4563 93.4367 32.4563C92.994 32.4057 92.5653 32.2699 92.1742 32.0563C90.1644 31.1653 87.9849 30.7218 85.7867 30.7563C83.893 30.7563 82.393 31.0563 81.3617 31.6938C80.3305 32.3188 79.7992 33.2938 79.7992 34.6625C79.7992 35.5938 80.1305 36.3938 80.7992 37.0313C81.4617 37.6625 82.693 38.2938 84.4555 38.8625L89.1805 40.3625C91.5742 41.1313 93.3055 42.2 94.3367 43.5688C95.368 44.9375 95.8617 46.5063 95.8617 48.2437C95.8617 49.6812 95.568 50.975 94.9992 52.1125C94.4105 53.254 93.5836 54.2558 92.5742 55.05C91.543 55.8812 90.3117 56.4875 88.8805 56.9188C87.3805 57.3875 85.818 57.6187 84.1242 57.6187Z" fill="#E3E3E3"/>
<path fill-rule="evenodd" clip-rule="evenodd" d="M90.4058 73.8313C79.4683 81.9375 63.5683 86.2438 49.8996 86.2438C30.7433 86.2438 13.4808 79.1375 0.443314 67.325C-0.587936 66.3875 0.343314 65.1188 1.56831 65.8563C15.6746 74.0625 33.0683 79.0375 51.0683 79.0375C63.1996 79.0375 76.5371 76.5 88.8121 71.2938C90.6433 70.4625 92.2058 72.4938 90.4058 73.8313Z" fill="#E3E3E3"/>
<path fill-rule="evenodd" clip-rule="evenodd" d="M94.9623 68.625C93.5686 66.8313 85.7186 67.7625 82.1623 68.1938C81.0998 68.3313 80.9311 67.3938 81.8936 66.6938C88.1436 62.2875 98.4248 63.5563 99.6186 65.025C100.819 66.525 99.2873 76.8375 93.4311 81.775C92.5373 82.5438 91.6748 82.15 92.0748 81.15C93.3998 77.8375 96.3623 70.4 94.9623 68.6313V68.625Z" fill="#E3E3E3"/>
</svg>
