<svg width="101" height="100" viewBox="0 0 101 100" fill="none" xmlns="http://www.w3.org/2000/svg">
<g clip-path="url(#clip0_2089_7)">
<path d="M72.4408 39.6583C67.1783 16.4917 54.7658 8.87917 53.4325 5.96667C51.9658 3.9125 50.3783 0 50.3783 0C50.37 0.0791667 50.3617 0.129167 50.3575 0.204167V0.258333H50.3533C50.345 0.320833 50.3408 0.3625 50.3367 0.420833V0.483333H50.3283C50.3283 0.525 50.32 0.558333 50.32 0.591667V0.7H50.3075C50.3033 0.733333 50.3033 0.775 50.295 0.804167V0.891667H50.2867C50.2867 0.920833 50.2867 0.954167 50.2783 0.979167V1.0625H50.27C50.27 1.10417 50.2658 1.15417 50.2617 1.19583V1.20417C50.2492 1.275 50.2367 1.34583 50.2242 1.4125V1.44583H50.2158C50.2117 1.4625 50.2033 1.47917 50.2033 1.49583V1.56667H50.1908V1.65833H50.17V1.73333H50.1492V1.82083H50.1325V1.9H50.1158V1.97083H50.0908V2.02917H50.0742V2.10417H50.0575V2.1625H50.0367V2.21667H50.0242V2.27917H50.0075C50.0033 2.28333 50.0033 2.29167 50.0033 2.29583V2.3375H49.9908C49.9867 2.34583 49.9867 2.35417 49.9867 2.3625V2.3875H49.9783C49.9742 2.4 49.97 2.42083 49.97 2.42917C49.9575 2.45833 49.9408 2.4875 49.9283 2.51667V2.525C49.92 2.53333 49.9117 2.54583 49.9075 2.55417V2.5875H49.8908V2.62083H49.87V2.65417H49.8575V2.69583H49.8325V2.75417H49.8158V2.77083H49.7992V2.80417H49.7825V2.85H49.7658V2.88333H49.7408V2.92917H49.7242V2.9625H49.7033V2.99583H49.6908V3.0375H49.67V3.07083H49.6533V3.09583H49.6367V3.12917H49.6117V3.16667H49.595V3.19167H49.5742V3.225H49.5575V3.27083H49.5367V3.2875H49.5242V3.32083H49.4992V3.3375H49.4825V3.37917H49.4658V3.39583H49.4492V3.42917H49.4283V3.45417H49.4158L49.4075 3.47083V3.4875H49.3992C49.395 3.49583 49.3908 3.49583 49.3908 3.50417L49.3867 3.50833C49.3825 3.52083 49.3783 3.52917 49.37 3.5375V3.55C49.3492 3.575 49.3325 3.6 49.3158 3.625C49.3075 3.63333 49.2867 3.65417 49.2783 3.67083V3.67917H49.2742C49.27 3.68333 49.2617 3.6875 49.2617 3.69167V3.70417H49.2533L49.2408 3.71667L49.2367 3.72083C49.2367 3.725 49.2283 3.72917 49.2242 3.7375V3.75417H49.2117L49.2033 3.7625V3.77083H49.195C49.195 3.77917 49.1867 3.77917 49.1867 3.78333V3.79583H49.17C49.17 3.8 49.1658 3.80417 49.1617 3.80833V3.83333H49.1492V3.85H49.1325V3.875H49.1158V3.90833H49.095V3.875H49.0742V3.89167H49.0575V3.91667H49.0367V3.95H49.0158V3.96667H48.9992V3.99167H48.9825V4.00833H48.9658V4.04167H48.9408V4.05833H48.9242V4.08333H48.9033V4.1H48.8867V4.12083H48.8658V4.1625H48.8575V4.17917H48.8325V4.2H48.8158V4.20833H48.7992V4.225H48.7783V4.26667H48.7617V4.28333H48.7408V4.3H48.7242V4.325H48.7033V4.34167H48.6825V4.35833H48.6658V4.375H48.6492V4.41667H48.6325V4.4375H48.6075V4.45417H48.5908V4.47083H48.57V4.49583H48.5533V4.5125H48.5325V4.54167H48.5158V4.55833H48.4908V4.58333H48.4825V4.6H48.4658V4.61667H48.445V4.63333H48.4283V4.65833H48.4075V4.675H48.395C48.3908 4.67917 48.3908 4.68333 48.3908 4.68333V4.69167H48.3825L48.3658 4.70833C48.3658 4.70833 48.3575 4.71667 48.3492 4.72083V4.74583H48.3325V4.76667H48.3158V4.78333H48.2992V4.8H48.2867L48.2742 4.8125V4.825H48.2658L48.2575 4.83333V4.84583H48.2492C48.2283 4.87083 48.22 4.8875 48.1908 4.9125C48.1825 4.92083 48.1575 4.94167 48.1408 4.95417C48.0908 4.9875 48.0283 5.04167 47.9783 5.0875C47.945 5.10833 47.9117 5.1375 47.8867 5.15833L47.8825 5.1625C47.8158 5.21667 47.7533 5.26667 47.6783 5.325V5.32917C47.5783 5.4125 47.4825 5.49167 47.37 5.5875L47.3617 5.58333C47.1242 5.77917 46.8742 6 46.5867 6.24583V6.25H46.5825C45.8783 6.86667 45.0408 7.65833 44.1033 8.61667L44.0408 8.67917L44.0242 8.69583C38.3575 14.5583 29.4283 26.775 28.4867 46.5167C28.4033 48.15 28.42 49.7375 28.5117 51.2833V51.3208C28.9658 59.1 31.4075 65.7417 34.4617 71.1375C35.6783 73.2875 36.9908 75.2458 38.32 76.9958C42.9117 83.0583 47.5992 86.6542 48.795 87.525C50.6325 91.7875 50.4617 99.1042 50.4617 99.1042L53.145 100C53.145 100 52.5992 92.9125 53.3658 89.4917C53.6033 88.4208 54.1658 87.5083 54.82 86.7333C55.2617 86.4208 56.57 85.4792 58.1408 84.0458C58.2158 83.9667 58.2575 83.8958 58.3242 83.8208C64.6617 77.9125 76.4992 63.3625 72.4408 39.6583Z" fill="#E3E3E3"/>
</g>
<defs>
<clipPath id="clip0_2089_7">
<rect width="100" height="100" fill="white" transform="translate(0.857422)"/>
</clipPath>
</defs>
</svg>
