<svg width="91" height="100" viewBox="0 0 91 100" fill="none" xmlns="http://www.w3.org/2000/svg">
<path d="M36.8888 33.159C37.1468 33.3358 37.4394 33.4704 37.7538 33.517C38.8633 33.6834 39.8132 32.7145 39.8732 32.2507C39.9335 31.7861 39.082 31.2745 37.9702 31.1081C36.86 30.942 35.9097 31.1838 35.851 31.6476C35.8074 31.9807 36.2345 32.7109 36.8888 33.159ZM36.2047 32.4006C36.0082 32.1211 35.8926 31.8374 35.9056 31.671L35.9077 31.6559C35.9479 31.3387 36.5146 31.117 37.2863 31.117C37.5049 31.117 37.7325 31.1346 37.9627 31.1692C38.4933 31.2485 38.9804 31.4091 39.3338 31.6213C39.6664 31.821 39.8423 32.0474 39.8171 32.2423C39.7696 32.6087 39.0173 33.4751 38.0089 33.4751C37.9266 33.4751 37.8434 33.469 37.7618 33.457C37.4752 33.4142 37.2086 33.2942 36.9704 33.1389C36.9213 33.1068 36.8724 33.0747 36.8259 33.0398C36.57 32.8471 36.3561 32.6168 36.2047 32.4006ZM90.1244 59.5271C89.9433 58.9382 89.1292 57.0654 86.2781 57.6981C81.7627 58.6994 79.1056 58.6 77.5539 58.2155C87.564 40.3589 92.8136 17.4768 88.008 10.8769C82.9031 3.86636 75.4069 0.106001 66.3299 0.0021287C59.6296 -0.0727043 54.3503 1.84838 53.7254 2.15525C51.5514 1.56776 49.1797 1.207 46.5951 1.16092C42.2946 1.08721 38.5351 2.09801 35.3592 4.16486C33.4159 3.48605 30.368 2.55595 26.8439 1.96287C18.7013 0.591858 12.2582 1.67107 7.69346 5.16812C2.33883 9.27137 -0.133999 16.5497 0.343054 26.8021C0.502591 30.231 2.44094 40.9551 5.52854 51.3758C9.53126 64.8851 13.7967 72.5363 18.2066 74.1173C18.7148 74.2988 19.301 74.4267 19.9467 74.4267C21.4303 74.4264 23.227 73.7501 25.1038 71.5143C25.3475 72.9233 27.1721 73.6255 29.1959 74.2697C29.237 74.2828 29.2785 74.2937 29.3209 74.3018C29.8369 74.4026 30.3423 74.5107 30.8388 74.6171C32.5782 74.9879 34.2208 75.3386 35.8975 75.3386H35.898C38.037 75.3386 39.913 74.7514 41.7053 73.4946C41.7167 82.6072 42.3796 90.3513 43.462 93.26C43.9305 94.5185 46.3932 100.001 53.6766 100C54.871 100 56.1938 99.8528 57.6596 99.5153C65.0552 97.8114 68.3823 94.3691 69.5269 87.2362C70.1952 83.0741 71.0726 75.2808 71.4549 71.1932C72.4453 71.4576 73.6481 71.5799 74.9343 71.5799C78.058 71.5794 81.6754 70.8623 83.9448 69.73C87.8695 67.7701 91.0468 62.526 90.1244 59.5271ZM82.0651 67.2929C79.7324 68.4562 76.5762 69.0015 73.8801 69.0015C72.2084 69.0015 70.7141 68.7918 69.7015 68.3897C69.2408 73.026 68.1747 82.2981 67.5615 86.119C66.4565 93.007 63.7316 95.9861 57.1482 97.5034C56.0489 97.7564 55.0501 97.8698 54.1419 97.8698C51.9492 97.8698 50.2884 97.2069 49.0204 96.2567C47.6407 95.5002 46.4223 94.2683 45.6906 92.3022C45.5399 91.8971 45.3921 91.3272 45.2505 90.6138C45.2289 90.556 45.2073 90.4982 45.1873 90.444C44.1758 87.7265 43.843 78.2786 43.9313 69.2221C41.6237 71.7234 38.6468 73.0344 35.2069 73.0344C33.881 73.0344 32.4851 72.8398 31.0581 72.4559C30.3779 72.2738 29.4789 71.9181 28.7222 71.4009C28.5999 71.3322 28.5583 71.282 28.4422 71.1957C27.7359 70.6434 27.2134 69.933 27.23 69.0666C27.2659 67.2173 29.5527 66.498 31.2691 66.1174C35.4389 65.1948 35.7448 64.7779 37.0309 63.023C37.3035 62.6508 37.6267 62.2104 38.0269 61.705C38.0082 61.5182 37.9944 61.3306 37.9905 61.1407C36.0449 61.1362 34.1379 60.5842 32.4233 59.5497C31.4726 60.6328 28.3491 64.2343 24.9926 68.5737C23.7943 70.1218 22.6323 70.9592 21.5724 71.3596C20.2725 72.1378 19.3511 71.8086 18.9663 71.6707C18.7377 71.5886 18.51 71.4786 18.2827 71.3498C9.0316 67.7975 2.59242 33.6178 2.29855 27.2978C1.8506 17.6756 4.14727 10.8753 9.12436 7.08586C13.2448 3.94845 19.2823 2.95831 26.5841 4.22238C31.0516 4.99556 34.6706 6.36377 35.9092 6.86694C39.0361 4.52981 42.8275 3.3805 47.2322 3.46204C49.598 3.50364 51.7718 3.82894 53.7665 4.35948V4.2503C53.965 4.28855 54.163 4.32653 54.3576 4.36813C55.604 3.88619 59.9495 2.51909 65.3727 2.51909C66.8818 2.51909 68.545 2.6305 70.2854 2.92955C75.7281 3.73568 81.6042 6.26856 86.1183 12.4666C86.7245 13.2992 87.114 14.6348 87.2896 16.3693C87.9272 20.094 87.4575 25.5529 85.8808 32.1153C83.666 41.332 79.5637 51.21 74.5739 59.3883C74.5739 59.3883 74.5001 59.5254 74.4235 59.6533C75.2905 60.4393 77.9671 61.3376 84.3018 59.9322C86.3074 59.4868 87.5021 59.8423 87.8547 60.9869C88.5233 63.1601 84.7586 65.9484 82.0651 67.2929ZM71.4798 59.469C70.044 59.9269 67.6148 61.0139 67.8507 66.0202C67.8364 66.2129 67.8162 66.4603 67.7912 66.7456C67.7907 66.7535 67.7891 66.763 67.7881 66.7708C67.7767 66.9017 67.7639 67.0413 67.7502 67.1896C67.7494 67.1944 67.7494 67.1991 67.7489 67.2041C67.3653 71.2985 66.1896 81.6595 65.5341 85.7429C64.5802 91.691 62.4374 94.0231 56.7166 95.3416C50.6506 96.7383 48.5096 93.4172 47.0968 89.6225C46.203 87.2206 45.7613 76.491 46.0692 64.6637C46.0726 64.5252 46.0497 64.3937 46.0097 64.2703C45.9767 64.0081 45.9312 63.7431 45.8598 63.4753C45.4334 61.8748 44.3595 60.4845 43.1232 59.9336C42.727 59.7571 42.1273 59.4905 41.4083 59.4905C40.9804 59.4905 40.5683 59.5857 40.1674 59.7677C40.3882 58.509 40.8874 57.0659 41.4374 55.4813L41.6346 54.9123C41.8599 54.2617 42.1398 53.5935 42.4362 52.8856C44.0092 49.1303 46.1633 43.9872 43.8206 32.3456C43.2427 29.4752 41.7417 27.6071 39.4845 26.8546C39.4105 26.83 39.3341 26.8085 39.2585 26.7862C39.1413 26.7516 39.0228 26.72 38.902 26.6913C38.8245 26.6728 38.7471 26.6547 38.6684 26.6385C38.512 26.6072 38.353 26.5804 38.1911 26.5584C38.1479 26.5525 38.1066 26.5438 38.0635 26.5388C37.8598 26.5142 37.6506 26.4989 37.4376 26.4891C37.3682 26.4858 37.2972 26.4852 37.2271 26.4832C37.0655 26.4796 36.9018 26.4796 36.735 26.4841C36.6651 26.486 36.5952 26.4872 36.5245 26.4905C36.2922 26.5017 36.0571 26.5176 35.8157 26.5447C33.1766 26.8384 30.757 27.9858 29.5496 28.6434C29.0878 28.8949 28.6955 29.1306 28.353 29.3529C28.3611 29.2264 28.3699 29.096 28.3795 28.9622C28.3884 28.8369 28.3988 28.707 28.4094 28.5755C28.4097 28.5713 28.4099 28.5668 28.4104 28.5629C28.4325 28.2879 28.4588 27.9983 28.4887 27.6973C28.4889 27.6951 28.4892 27.6929 28.4894 27.6909C28.9527 23.0541 30.406 15.5372 34.9413 10.6147C38.0443 7.24697 42.1694 5.59087 47.1984 5.67296C63.2309 5.95526 70.3636 20.0317 72.1743 25.3688C72.1759 25.373 72.1772 25.3764 72.1788 25.3806C72.2281 25.5263 72.2736 25.6657 72.3154 25.7983C72.3165 25.8033 72.3178 25.8078 72.3191 25.8131C72.3612 25.9466 72.3996 26.0742 72.4334 26.1926C72.1322 26.1546 71.8376 26.1233 71.5481 26.0971C71.4463 26.0876 71.3478 26.082 71.2475 26.0742C71.0641 26.0597 70.8806 26.0454 70.7016 26.0359C70.58 26.0292 70.4615 26.0261 70.3423 26.022C70.191 26.0161 70.0406 26.0108 69.893 26.0091C69.7636 26.0072 69.6373 26.0083 69.5108 26.0091C69.3804 26.01 69.2502 26.0116 69.1226 26.0155C68.9891 26.0194 68.8578 26.0256 68.7279 26.0329C68.6146 26.039 68.5037 26.0463 68.393 26.0549C68.2558 26.0658 68.1199 26.0781 67.9869 26.0923C67.8931 26.1024 67.8008 26.1141 67.7086 26.1261C67.5659 26.1445 67.4246 26.1638 67.2866 26.1864C67.2141 26.1984 67.1448 26.2124 67.0741 26.2252C66.9223 26.2534 66.7709 26.2822 66.6248 26.3157C66.5872 26.3241 66.5516 26.3341 66.5149 26.3434C65.3511 26.6243 64.3682 27.0788 63.5736 27.7105C63.4393 27.8171 63.3112 27.9288 63.187 28.0452C63.1841 28.048 63.1818 28.0506 63.1794 28.0531C63.0555 28.1695 62.9383 28.2907 62.8256 28.4172C62.6263 28.6403 62.4397 28.8743 62.2744 29.1284C58.6802 34.6501 64.3435 45.5637 67.0652 50.8087C67.5743 51.7894 68.0134 52.636 68.1565 53.0099C69.0369 55.3015 70.1809 56.8384 71.0173 57.9609C71.4019 58.478 71.7487 58.944 71.9491 59.326C71.8914 59.3433 71.8355 59.3604 71.7849 59.3763C71.6905 59.4048 71.5876 59.4357 71.4806 59.4698C71.4798 59.469 71.4798 59.469 71.4798 59.469ZM84.7178 62.0976C85.1158 62.0094 85.4105 61.9706 85.6254 61.9575C85.0389 62.7574 83.4867 64.1463 81.1986 65.2875C78.3256 66.7205 72.7062 67.2753 70.4618 66.3475C69.9954 66.1545 69.9081 65.9839 69.9081 65.9839C69.7127 62.297 71.1082 61.8759 72.3399 61.5043C72.5204 61.4498 72.7704 61.3744 73.0271 61.2569C73.1661 61.3901 73.3262 61.5232 73.5091 61.6531C75.5987 63.1347 79.3696 63.2843 84.7178 62.0976ZM39.5097 54.7079L39.7056 54.1421C39.9551 53.4212 40.2484 52.72 40.56 51.9776C42.0966 48.3088 44.009 43.7426 41.8095 32.8125C41.3512 30.5362 40.2235 29.2317 38.3602 28.8249C38.2527 28.8014 38.144 28.7818 38.0347 28.7648C37.931 28.7481 37.826 28.7355 37.7205 28.724C37.7182 28.7238 37.7161 28.7232 37.7138 28.7232C33.9101 28.3147 29.1476 31.186 28.2805 32.1234C28.2891 32.3819 28.3089 32.7363 28.3317 33.1532C28.4666 35.5933 28.7171 40.1347 28.0394 45.3428C27.54 49.1794 28.6313 52.9247 31.0335 55.6184C32.7608 57.5554 34.9868 58.7005 37.3095 58.8974C37.3113 58.8974 37.3128 58.8974 37.3149 58.8977C37.4648 58.9102 37.615 58.9194 37.7657 58.9242C37.9188 58.9295 38.0726 58.9303 38.2259 58.927C38.5018 57.6124 38.9862 56.2171 39.5097 54.7079ZM36.8082 33.1755C36.4484 32.9144 36.2062 32.6062 36.1137 32.4744C35.8874 32.1518 35.7679 31.8397 35.7944 31.6386L35.805 31.5861C35.8986 31.2248 36.4694 30.9944 37.2866 30.9944C37.4137 30.9944 37.5438 31.0017 37.6756 31.0132C37.7759 31.0218 37.8767 31.0324 37.9785 31.0475C37.9869 31.0489 37.9939 31.0506 38.0019 31.052C38.5374 31.1346 39.0293 31.2977 39.3894 31.5141C39.7706 31.7431 39.9626 32.0078 39.9301 32.2591C39.8693 32.729 39.0366 33.5974 38.0092 33.5974C37.9214 33.5974 37.833 33.591 37.7462 33.5779C37.3794 33.5231 37.0676 33.3626 36.8124 33.1783C36.8108 33.1775 36.8095 33.1763 36.8082 33.1755ZM72.2138 32.7821C72.4194 31.3502 72.6124 29.9828 72.6124 28.4448C69.0984 27.9394 66.5552 28.2371 65.01 29.3238C64.9804 29.3445 64.9497 29.3646 64.9206 29.3861C64.8564 29.4336 64.7956 29.4835 64.7343 29.5338C64.6867 29.5735 64.64 29.6134 64.595 29.655C64.5467 29.6991 64.4991 29.7435 64.4539 29.7896C64.3962 29.8463 64.3438 29.9055 64.2915 29.9649C64.2588 30.0024 64.2245 30.0389 64.1931 30.0772C64.111 30.1791 64.032 30.2844 63.9603 30.3949C61.1042 34.7819 66.5401 45.2577 68.861 49.7312C69.4461 50.8579 69.8686 51.6721 70.0575 52.166C70.3602 52.954 70.6977 53.6359 71.0454 54.2424C72.9385 50.389 72.5126 46.5033 72.0915 42.734C71.8864 40.9068 71.6937 39.1803 71.7459 37.4547C71.7994 35.676 72.0104 34.2047 72.2138 32.7821ZM67.4896 32.6198C66.4954 32.6198 65.6546 31.757 65.5954 31.308C65.558 31.0092 65.8604 30.701 66.3595 30.4667C66.3907 30.4522 66.4229 30.4379 66.4552 30.424C66.7573 30.2944 67.1216 30.1911 67.5233 30.1308C67.7572 30.0959 67.989 30.0783 68.2119 30.0783C69.0519 30.0783 69.6267 30.3207 69.6761 30.6962C69.7145 30.9984 69.3985 31.578 68.8968 32.0226C68.8607 32.0541 68.8241 32.0848 68.7866 32.1147C68.4868 32.3554 68.1311 32.5439 67.7486 32.6008C67.6639 32.6134 67.5769 32.6198 67.4896 32.6198ZM29.3804 59.8219C28.8613 60.4304 28.2546 61.1499 27.5847 61.9572C26.3487 63.4466 24.9032 65.2292 23.4105 67.1595C21.1668 70.0584 19.5626 69.4826 19.0359 69.2942C11.295 66.5198 4.6529 33.6365 4.35279 27.1875C3.94278 18.3725 5.94687 12.2172 10.31 8.89274C17.0095 3.7879 27.7429 6.40203 32.7899 8.07041C32.8227 8.0813 32.8536 8.09163 32.8858 8.10225C33.0589 8.15977 33.2241 8.21589 33.3826 8.2709C33.4179 8.28291 33.453 8.29491 33.4873 8.30692C33.6765 8.37254 33.8584 8.43676 34.0244 8.49707C33.8404 8.68053 33.657 8.86565 33.4793 9.05916C32.7894 9.80833 32.1656 10.6075 31.6002 11.4404C31.4853 11.6093 31.377 11.7819 31.2671 11.9536C31.2016 12.0561 31.1335 12.1575 31.0698 12.2608C30.9669 12.4269 30.8692 12.595 30.771 12.7631C30.7058 12.8751 30.6388 12.9865 30.5754 13.0993C30.4811 13.2666 30.3904 13.4358 30.3002 13.6047C30.2389 13.72 30.1763 13.8353 30.1163 13.9515C30.029 14.1213 29.9442 14.2922 29.8606 14.4636C29.8032 14.5806 29.7465 14.6979 29.6912 14.8152C29.6098 14.9877 29.5308 15.1606 29.4532 15.3342C29.4007 15.4512 29.3495 15.5685 29.2991 15.6861C29.2232 15.8614 29.1484 16.0373 29.0764 16.2135C29.0299 16.3283 28.9844 16.4431 28.9392 16.5575C28.868 16.7379 28.7973 16.9186 28.7295 17.099C28.6895 17.2065 28.6516 17.314 28.6123 17.4215C28.5445 17.6097 28.4762 17.7981 28.4118 17.9863C28.3808 18.0774 28.352 18.1681 28.3216 18.2592C28.2538 18.4635 28.1854 18.6682 28.1218 18.8721C28.114 18.8961 28.1072 18.9201 28.0999 18.9441C27.8645 19.7042 27.6593 20.4581 27.4787 21.1994C27.4618 21.2689 27.4431 21.339 27.427 21.4083C27.381 21.6015 27.3384 21.7925 27.2955 21.9841C27.2752 22.0762 27.2539 22.1689 27.2339 22.2608C27.1947 22.4417 27.1583 22.621 27.1222 22.7997C27.1019 22.898 27.0819 22.9968 27.063 23.0945C27.0289 23.2679 26.997 23.4391 26.9658 23.61C26.9473 23.7097 26.9294 23.8096 26.912 23.9085C26.8824 24.0752 26.8543 24.2405 26.8273 24.4044C26.8112 24.503 26.7956 24.601 26.78 24.6984C26.7545 24.8598 26.7298 25.0201 26.7062 25.1784C26.6924 25.2728 26.6794 25.3658 26.6662 25.4588C26.6441 25.6162 26.6223 25.7729 26.602 25.9265C26.5903 26.0147 26.5797 26.101 26.569 26.1884C26.55 26.3414 26.5306 26.4947 26.5137 26.6432C26.5046 26.7223 26.4968 26.7982 26.4885 26.8758C26.4716 27.0286 26.4547 27.1824 26.4396 27.3301C26.4362 27.3628 26.4339 27.3938 26.4305 27.4262C26.3944 27.7942 26.3635 28.1458 26.3385 28.478C26.3367 28.5015 26.3346 28.5269 26.3328 28.5501C26.3237 28.6766 26.3159 28.7958 26.3079 28.9164C26.3029 28.9865 26.2978 29.0594 26.2936 29.1278C26.2868 29.235 26.2816 29.3364 26.2759 29.4383C26.2715 29.5126 26.2673 29.5885 26.264 29.6595C26.259 29.7541 26.2554 29.8438 26.2515 29.9328C26.2484 30.0037 26.245 30.0752 26.2427 30.1428C26.2395 30.2255 26.2367 30.3045 26.2344 30.3818C26.232 30.4474 26.2299 30.5125 26.2281 30.5745C26.2263 30.6449 26.2247 30.7133 26.2232 30.7783C26.2216 30.84 26.2206 30.8992 26.2198 30.9559C26.2188 31.0118 26.218 31.0676 26.2169 31.119C26.2164 31.1751 26.2159 31.227 26.2156 31.277C26.2156 31.3209 26.2149 31.3655 26.2149 31.4049C26.2149 31.4538 26.2149 31.4971 26.2149 31.5389C26.2149 31.5685 26.2149 31.6012 26.2151 31.6272C26.2154 31.671 26.2156 31.7065 26.2162 31.7397C26.2162 31.7542 26.2164 31.7735 26.2164 31.7861C26.2172 31.8265 26.218 31.8581 26.2185 31.8765C26.2185 32.1957 26.2432 32.6531 26.278 33.283C26.4082 35.6464 26.6509 40.0451 26.0015 45.0357C25.9683 45.2923 25.9428 45.5484 25.9215 45.8038C25.9132 45.901 25.9083 45.9974 25.902 46.0945C25.8919 46.2484 25.8833 46.4022 25.8776 46.5553C25.8729 46.6801 25.8698 46.8049 25.8685 46.9294C25.8669 47.0458 25.8672 47.1614 25.868 47.2776C25.869 47.4262 25.8706 47.5744 25.8755 47.7221C25.8779 47.7861 25.8823 47.8495 25.8851 47.9131C25.9257 48.7625 26.0309 49.5994 26.2014 50.4158C26.2016 50.4189 26.2027 50.4217 26.2029 50.4248C26.7304 52.9395 27.8648 55.2599 29.5483 57.1475C29.9146 57.5579 30.3013 57.9357 30.703 58.2864C30.6507 58.3465 30.5907 58.4154 30.5315 58.4839C30.5018 58.5179 30.4743 58.5498 30.4429 58.5855C30.3987 58.6366 30.3493 58.6938 30.3015 58.7488C30.2467 58.8119 30.1929 58.8748 30.1339 58.9432C30.1051 58.9761 30.0736 59.013 30.0435 59.0473C29.9598 59.1448 29.8743 59.2439 29.7829 59.35C29.767 59.3687 29.7504 59.3886 29.734 59.407C29.627 59.5318 29.516 59.6616 29.3994 59.7979C29.3934 59.8066 29.3866 59.8144 29.3804 59.8219ZM59.784 5.22564C59.7892 5.22452 59.7946 5.22369 59.7993 5.22257C61.3887 4.9439 63.2852 4.73001 65.3727 4.73001C73.4392 4.73001 79.8015 7.84898 84.281 14.0004C86.0294 16.4014 85.8758 23.295 83.8886 31.5624C81.9433 39.6578 78.5031 48.2781 74.2842 55.7421C74.2691 55.7684 74.2546 55.7946 74.2398 55.8206C73.9225 56.3813 73.6016 56.9367 73.275 57.4831C73.0747 57.1896 72.8546 56.8914 72.6223 56.579C72.5378 56.4656 72.4498 56.3478 72.3614 56.2283C75.137 51.4515 74.6051 46.6876 74.1335 42.4701C73.9386 40.7286 73.7544 39.0837 73.8014 37.5256C73.8503 35.8801 74.0519 34.4764 74.2468 33.1185C74.4959 31.3792 74.7282 29.7279 74.6552 27.7118C74.7036 27.525 74.7256 27.3 74.7017 27.0241C74.5341 25.1145 72.4924 19.3839 68.3257 14.1713C65.9441 11.1922 62.4218 7.84228 57.566 5.69419C57.7726 5.64281 57.9909 5.59115 58.2177 5.53977C58.2304 5.53698 58.2426 5.53391 58.2554 5.53112C58.4835 5.47974 58.722 5.4292 58.9691 5.37922C58.979 5.37726 58.9891 5.37503 58.9993 5.37307C59.2516 5.32253 59.5135 5.27311 59.784 5.22564ZM43.8817 64.0829C44.0046 64.5445 44.1405 65.4243 43.6704 66.1322C43.5306 66.3419 43.3872 66.5432 43.2407 66.7389C43.2162 66.7716 43.1905 66.8026 43.1656 66.835C43.0383 67.002 42.9083 67.1648 42.7758 67.3211C42.7602 67.3393 42.7441 67.3566 42.7285 67.3753C42.5825 67.5456 42.4331 67.7093 42.2803 67.8676C42.2759 67.8723 42.2715 67.8762 42.2671 67.8807C42.1049 68.048 41.9392 68.2085 41.7697 68.3615C41.769 68.3624 41.7677 68.3635 41.7666 68.3646C39.9642 69.9959 37.7686 70.8235 35.2059 70.8235C34.1153 70.8235 32.9612 70.6654 31.7742 70.3633C31.7012 70.3449 31.6298 70.3315 31.5565 70.3117C30.5154 70.0319 29.6402 69.4832 29.3573 69.1478C29.5659 68.9778 30.1568 68.6209 31.6836 68.2825C36.3806 67.2432 37.0499 66.5692 38.6466 64.3906C39.0192 63.8824 39.4411 63.3064 40.0284 62.6019C40.7769 61.7014 41.2522 61.7014 41.4086 61.7014C41.6954 61.7014 41.9862 61.8203 42.3359 61.9764C42.9936 62.2688 43.6294 63.1352 43.8817 64.0829Z" fill="#E3E3E3"/>
</svg>
