<svg width="100" height="100" viewBox="0 0 100 100" fill="none" xmlns="http://www.w3.org/2000/svg">
<path d="M50 93.75C74.1625 93.75 93.75 74.1625 93.75 50C93.75 25.8375 74.1625 6.25 50 6.25C25.8375 6.25 6.25 25.8375 6.25 50C6.25 74.1625 25.8375 93.75 50 93.75Z" fill="#E3E3E3"/>
<path d="M45.123 31.25H50.373L48.8892 39.1381H53.6067C56.1939 39.1934 58.1211 39.7716 59.3895 40.8728C60.683 41.9738 61.0636 44.0669 60.5311 47.1503L57.982 60.9028H52.6558L55.0905 47.7697C55.3439 46.3928 55.268 45.4156 54.8623 44.8375C54.4567 44.2594 53.5817 43.9703 52.2373 43.9703L48.0142 43.9291L44.8945 60.9028H39.6445L45.123 31.25Z" fill="white"/>
<path fill-rule="evenodd" clip-rule="evenodd" d="M21.0654 39.1384H31.2613C34.2537 39.1656 36.4225 40.1022 37.7669 41.9466C39.1112 43.7912 39.555 46.3103 39.0984 49.5044C38.9213 50.9641 38.5278 52.3953 37.9191 53.7997C37.3356 55.2037 36.5244 56.47 35.4844 57.5991C34.2159 59.0306 32.8591 59.9391 31.4134 60.325C29.9678 60.7106 28.4711 60.9031 26.9242 60.9031H22.3589L20.9132 68.75H15.625L21.0654 39.1384ZM23.2339 56.2362L25.509 43.8878H26.2775C26.5567 43.8878 26.8481 43.8737 27.1525 43.8466C29.1818 43.8191 30.8679 44.0256 32.2125 44.4659C33.5819 44.9062 34.0384 46.5722 33.5819 49.4631C33.0244 52.905 31.9331 54.9147 30.3102 55.4928C28.6872 56.0437 26.6579 56.305 24.2231 56.2775H23.6904C23.5382 56.2775 23.3861 56.2634 23.2339 56.2362Z" fill="white"/>
<path fill-rule="evenodd" clip-rule="evenodd" d="M76.3638 39.1384H66.1679L60.7275 68.75H66.0157L67.4616 60.9031H72.0269C73.5738 60.9031 75.0704 60.7106 76.516 60.325C77.9619 59.9391 79.3185 59.0306 80.5869 57.5991C81.6269 56.47 82.4382 55.2037 83.0216 53.7997C83.6304 52.3953 84.0238 50.9641 84.201 49.5044C84.6575 46.3103 84.2141 43.7912 82.8694 41.9466C81.525 40.1022 79.3566 39.1656 76.3638 39.1384ZM70.6116 43.8878L68.3366 56.2362C68.4888 56.2634 68.641 56.2775 68.7932 56.2775H69.3257C71.7607 56.305 73.7897 56.0437 75.4129 55.4928C77.0357 54.9147 78.1269 52.905 78.6847 49.4631C79.1413 46.5722 78.6847 44.9062 77.315 44.4659C75.9707 44.0256 74.2844 43.8191 72.255 43.8466C71.9507 43.8737 71.6594 43.8878 71.38 43.8878H70.6116Z" fill="white"/>
</svg>
