<svg width="101" height="100" viewBox="0 0 101 100" fill="none" xmlns="http://www.w3.org/2000/svg">
<path d="M49.7832 0C24.3957 0 25.9801 11.0671 25.9801 11.0671L26.0113 22.5332H50.2363V25.973H16.3832C16.3832 25.973 0.142578 24.1196 0.142578 49.8728C0.142578 75.6196 14.3207 74.7086 14.3207 74.7086H22.7832V62.7588C22.7832 62.7588 22.327 48.5063 36.7363 48.5063H60.7613C60.7613 48.5063 74.2613 48.7262 74.2613 35.3909V13.3415C74.2613 13.3415 76.3114 0 49.7832 0ZM36.4238 7.70898C38.8332 7.70898 40.7832 9.66921 40.7832 12.0912C40.7832 14.5132 38.8332 16.4735 36.4238 16.4735C35.8511 16.4743 35.2839 16.3615 34.7546 16.1416C34.2253 15.9216 33.7444 15.5989 33.3395 15.1918C32.9345 14.7847 32.6134 14.3013 32.3946 13.7692C32.1758 13.2372 32.0636 12.6669 32.0645 12.0912C32.0645 9.66921 34.0145 7.70898 36.4238 7.70898Z" fill="#E3E3E3"/>
<path d="M50.5022 100C75.8897 100 74.3053 88.9329 74.3053 88.9329L74.2741 77.4668H50.049V74.027H83.8991C83.8991 74.027 100.143 75.8804 100.143 50.1304C100.143 24.3804 85.9647 25.2945 85.9647 25.2945H77.5022V37.2413C77.5022 37.2413 77.9584 51.4938 63.5491 51.4938H39.524C39.524 51.4938 26.024 51.2739 26.024 64.6091V86.6585C26.024 86.6585 23.974 100 50.5022 100ZM63.8615 92.2911C63.2888 92.2919 62.7216 92.1791 62.1923 91.9592C61.663 91.7392 61.1821 91.4165 60.7772 91.0094C60.3722 90.6023 60.0511 90.1189 59.8323 89.5868C59.6135 89.0547 59.5014 88.4845 59.5022 87.9088C59.5022 85.4899 61.4522 83.5297 63.8615 83.5297C66.2709 83.5297 68.2209 85.4868 68.2209 87.9088C68.2209 90.334 66.2709 92.2911 63.8615 92.2911Z" fill="#E3E3E3"/>
</svg>
