<svg width="101" height="100" viewBox="0 0 101 100" fill="none" xmlns="http://www.w3.org/2000/svg">
<g clip-path="url(#clip0_2073_9507)">
<path d="M59.4506 0.195801C58.7298 0.195801 58.0589 0.349967 57.4381 0.558301C58.7548 1.4333 59.4798 2.59997 59.8381 3.91663C59.8673 4.0958 59.9173 4.22497 59.9423 4.40413C59.9732 4.55792 59.9913 4.71402 59.9964 4.8708C60.0964 7.14163 59.4006 7.42913 58.9131 8.7708C58.1631 10.5 58.3714 12.3583 59.2714 13.8541C59.3539 14.0547 59.4572 14.2461 59.5798 14.425C58.6006 7.89163 64.0506 6.91247 65.0548 4.8708C65.1339 3.08747 63.6631 1.89997 62.5006 1.07497C61.5871 0.500922 60.5295 0.197533 59.4506 0.199967V0.195801ZM67.6631 1.66663C67.5631 2.26247 67.6381 2.1083 67.6131 2.41663C67.5881 2.62497 67.5881 2.8833 67.5631 3.08747C67.5089 3.2958 67.4589 3.50413 67.3798 3.7083C67.3298 3.91663 67.2548 4.12497 67.1714 4.32913L66.8923 4.9208C66.8089 5.02497 66.7631 5.12913 66.6839 5.2333L66.5298 5.46247C66.4069 5.63929 66.2776 5.81162 66.1423 5.97913C65.9881 6.13747 65.8589 6.31663 65.6756 6.4458V6.4708C65.5214 6.59997 65.3673 6.75413 65.1839 6.88747C64.6423 7.29997 64.0256 7.6083 63.4548 7.9958C63.2756 8.1208 63.0923 8.22913 62.9381 8.3833C62.7628 8.50659 62.5983 8.64459 62.4464 8.7958C62.2673 8.94997 62.1381 9.10413 61.9839 9.28747C61.8548 9.44163 61.7006 9.6208 61.5964 9.80413C61.4668 9.9786 61.3458 10.1594 61.2339 10.3458C61.1298 10.5541 61.0548 10.7333 60.9506 10.9375C60.8714 11.1458 60.7964 11.325 60.7423 11.5333C60.6739 11.7461 60.6142 11.9615 60.5631 12.1791C60.5381 12.2833 60.5381 12.4125 60.5131 12.5125C60.4839 12.6166 60.4839 12.7208 60.4589 12.825C60.4589 13.0333 60.4339 13.2625 60.4339 13.4708C60.4339 13.625 60.4339 13.7791 60.4589 13.9333C60.4589 14.1416 60.4839 14.35 60.5381 14.5791C60.5631 14.7875 60.6131 14.9958 60.6631 15.2041C60.7464 15.4083 60.7964 15.6125 60.8714 15.8208C60.9256 15.9458 61.0006 16.0791 61.0548 16.1833L55.1131 13.8833C54.1089 13.6 53.1256 13.3416 52.1173 13.1083L50.4923 12.7208C48.9423 12.4125 47.3673 12.1791 45.7923 12.025C45.7381 12.025 45.7131 12 45.6631 12C43.0017 11.7334 40.3222 11.6985 37.6548 11.8958C36.0798 12 34.5048 12.2041 32.9298 12.4625C31.7593 12.6641 30.5961 12.9059 29.4423 13.1875L28.2798 13.4958C27.8964 13.65 27.5298 13.8291 27.1714 13.9875L26.3173 14.375C26.2673 14.4 26.2173 14.4 26.1923 14.425C25.9298 14.5541 25.7006 14.6583 25.4673 14.7875C25.1318 14.9355 24.8036 15.0995 24.4839 15.2791C24.3048 15.3541 24.1256 15.4583 23.9673 15.5375C23.8933 15.5834 23.8168 15.6251 23.7381 15.6625C23.5048 15.7958 23.2714 15.925 23.0631 16.0541C22.8505 16.1717 22.6446 16.301 22.4464 16.4416C22.2631 16.5666 22.0839 16.6708 21.9298 16.8C21.9048 16.8291 21.8756 16.8291 21.8506 16.8541C21.6964 16.9583 21.5173 17.0875 21.3589 17.2166L21.3089 17.2666L20.9214 17.575C20.8714 17.6041 20.8173 17.6541 20.7673 17.6791C20.6381 17.7833 20.5089 17.9125 20.3798 18.0125C20.3548 18.0666 20.3006 18.0958 20.2756 18.1166C20.1214 18.275 19.9673 18.4041 19.8131 18.5583C19.7839 18.5583 19.7839 18.5833 19.7589 18.6083C19.5984 18.7487 19.444 18.896 19.2964 19.05C19.2673 19.075 19.2673 19.1 19.2423 19.1C19.1067 19.2327 18.9773 19.3718 18.8548 19.5166C18.8048 19.5666 18.7298 19.6166 18.6756 19.6666C18.5372 19.8303 18.3898 19.9861 18.2339 20.1333C18.2089 20.1833 18.1589 20.2125 18.1339 20.2583C17.9256 20.4666 17.7464 20.675 17.5381 20.8833L17.4631 20.9583C17.0464 21.4 16.6089 21.8375 16.1423 22.225C15.6798 22.6416 15.1881 23.025 14.6964 23.3625C13.7093 24.0676 12.6439 24.6562 11.5214 25.1166C10.9798 25.35 10.4089 25.5583 9.84228 25.7375C8.75894 25.9708 7.64644 26.4083 6.69228 26.4875C6.48394 26.4875 6.25478 26.5375 6.04644 26.5625L5.40061 26.7166L4.77978 26.95C4.57144 27.0291 4.36728 27.1333 4.16311 27.2333C3.97978 27.3625 3.77561 27.4666 3.59228 27.5958C3.40844 27.7289 3.23566 27.8766 3.07561 28.0375C2.89644 28.1625 2.71311 28.3458 2.55894 28.5C2.40478 28.6791 2.25061 28.8333 2.12144 29.0166C1.99228 29.225 1.83811 29.4041 1.73394 29.6125C1.59823 29.8002 1.47704 29.998 1.37144 30.2041C1.26728 30.4375 1.16311 30.6458 1.08811 30.875C1.00894 31.0833 0.933945 31.3166 0.854778 31.5458C0.804778 31.7541 0.750612 31.9625 0.729778 32.1708C0.729778 32.1916 0.700612 32.2208 0.700612 32.2458C0.650612 32.4791 0.650612 32.7875 0.621445 32.9416C0.596445 33.125 0.571445 33.275 0.571445 33.4583C0.566651 33.9076 0.672544 34.3512 0.879778 34.75V34.775C0.958945 34.9291 1.06311 35.0875 1.16728 35.2416C1.26728 35.3958 1.37561 35.55 1.50061 35.7041C1.62978 35.8333 1.78394 35.9916 1.94228 36.1208C2.09284 36.2718 2.25592 36.4098 2.42978 36.5333C3.05061 37.075 3.20478 37.2541 4.00478 37.6666C4.13394 37.7458 4.26311 37.7958 4.42144 37.875C4.44644 37.875 4.47144 37.9 4.49644 37.9C4.49644 37.9541 4.49644 37.9791 4.52144 38.0291C4.58176 38.455 4.69369 38.872 4.85478 39.2708C4.93811 39.425 4.98811 39.5791 5.06311 39.7333C5.09228 39.7875 5.11728 39.8375 5.14645 39.8625C5.24645 40.0708 5.35061 40.25 5.45061 40.4333L5.83811 40.975C5.96728 41.1291 6.12561 41.3083 6.27978 41.4666C6.43394 41.6208 6.58811 41.75 6.77144 41.9041C6.77144 41.9041 6.79644 41.9291 6.82144 41.9291C6.97561 42.0583 7.12978 42.1875 7.28811 42.2916C7.46779 42.4177 7.65729 42.5292 7.85478 42.625C8.03395 42.7291 8.24228 42.8333 8.44644 42.9125C8.61294 42.9876 8.78586 43.0475 8.96311 43.0916C8.99228 43.1166 9.01728 43.1166 9.06728 43.1416C9.17144 43.1708 9.30061 43.1958 9.40061 43.2208C9.32561 44.6166 9.30061 45.9291 9.50894 46.3958C9.73811 46.9125 10.8756 45.3375 12.0089 43.5291C11.8589 45.3125 11.7548 47.4041 12.0089 48.025C12.2964 48.6708 13.8423 46.6541 15.1881 44.4333C33.5006 40.2 50.2089 52.85 51.9631 70.725C51.6298 67.9333 48.1923 66.3875 46.6173 66.775C45.8423 68.6833 44.5256 71.1375 42.4089 72.6625C42.5881 70.9541 42.5131 69.2041 42.1506 67.4958C41.5722 69.8738 40.4784 72.0956 38.9464 74.0041C36.4964 74.1833 34.0423 72.9958 32.7506 71.2125C32.6464 71.1375 32.6214 70.9833 32.5423 70.8791C32.4673 70.7 32.3881 70.5166 32.3339 70.3375C32.259 70.1645 32.2071 69.9823 32.1798 69.7958C32.1548 69.6125 32.1548 69.4333 32.1548 69.225V68.8375C32.1856 68.6542 32.2288 68.4732 32.2839 68.2958C32.3381 68.1166 32.3881 67.9375 32.4673 67.7541C32.5673 67.575 32.6464 67.3916 32.7756 67.2125C33.2131 65.9708 33.2131 64.9625 32.4131 64.3708C32.2577 64.2694 32.0931 64.1829 31.9214 64.1125C31.8214 64.0875 31.6923 64.0375 31.5881 64.0083L31.3798 63.9333C31.2029 63.876 31.0218 63.8329 30.8381 63.8041C30.6621 63.7526 30.4798 63.726 30.2964 63.725C30.1089 63.6955 29.9196 63.6788 29.7298 63.675C29.6006 63.675 29.4714 63.7 29.3423 63.7C29.1492 63.6989 28.9569 63.7256 28.7714 63.7791C28.5923 63.8041 28.4131 63.8291 28.2298 63.8791C28.0455 63.9286 27.8645 63.9898 27.6881 64.0625C27.5089 64.1375 27.3548 64.2166 27.1714 64.2958C27.0173 64.3708 26.8631 64.475 26.6798 64.5541C20.6631 68.4791 24.2548 77.6708 28.3589 80.3333C26.8089 80.6166 25.2339 80.95 24.7964 81.2875L24.7423 81.3375C25.8548 82.0083 27.0173 82.5791 28.2298 83.0708C29.8839 83.6125 31.6381 84.1 32.4131 84.3083V84.3333C34.5528 84.7727 36.7409 84.9296 38.9214 84.8C50.3631 84 59.7381 75.2958 61.4423 63.8291L61.5964 64.5C61.6756 64.9666 61.7756 65.4583 61.8298 65.9458V65.9708C61.8798 66.2041 61.9048 66.4375 61.9339 66.6458V66.7458C61.9589 66.9791 61.9839 67.2125 61.9839 67.4208C62.0089 67.7041 62.0339 67.9875 62.0339 68.2708V68.6875C62.0339 68.8125 62.0631 68.9666 62.0631 69.0958C62.0631 69.2541 62.0339 69.4083 62.0339 69.5625V69.925C62.0339 70.1041 62.0089 70.2583 62.0089 70.4416C62.0089 70.5458 62.0089 70.65 61.9839 70.775C61.9839 70.9583 61.9589 71.1375 61.9589 71.3458C61.9339 71.4208 61.9339 71.5 61.9339 71.575L61.8506 72.1708C61.8506 72.25 61.8506 72.325 61.8298 72.4041C61.8006 72.6625 61.7506 72.8958 61.7256 73.1541V73.2041L61.5714 73.9291V74.0041L61.4173 74.7C61.4173 74.7291 61.3881 74.7833 61.3881 74.8041C61.3406 75.0404 61.2808 75.2741 61.2089 75.5041V75.5791C61.1298 75.8375 61.0548 76.0708 61.0006 76.3041C60.9756 76.3291 60.9756 76.3541 60.9756 76.3541L60.7423 77.1291C60.6423 77.3875 60.5631 77.6208 60.4589 77.8791C60.3548 78.1375 60.2798 78.3958 60.1756 78.6291C60.0714 78.8875 59.9673 79.1166 59.8673 79.3791H59.8381C59.7381 79.6083 59.6298 79.8666 59.5048 80.1C59.4831 80.1617 59.4566 80.2215 59.4256 80.2791C59.4006 80.3041 59.4006 80.3333 59.3756 80.3583C57.6676 83.7776 55.1816 86.7488 52.1173 89.0333C51.9089 89.1625 51.7048 89.3208 51.4964 89.475C51.4464 89.525 51.3714 89.55 51.3173 89.6C51.1326 89.7365 50.9436 89.8671 50.7506 89.9916L50.8256 90.1458H50.8548L51.9381 89.9916H51.9631C52.6339 89.8875 53.3048 89.7583 53.9756 89.6291C54.1589 89.6041 54.3631 89.55 54.5464 89.5L54.9089 89.4208C55.0881 89.3958 55.2673 89.3458 55.4506 89.3208C55.6048 89.2666 55.7589 89.2375 55.9131 89.1916C58.4964 88.5666 61.0006 87.7166 63.4048 86.7125C59.2541 92.3659 53.7339 96.871 47.3631 99.8041C50.3381 99.5958 53.3048 99.1083 56.1714 98.2791C66.5473 95.2285 75.3107 88.2262 80.5756 78.7791C79.5123 84.7594 77.1404 90.4307 73.6298 95.3875C76.1328 93.7365 78.4454 91.8137 80.5256 89.6541C86.3063 83.6191 90.1012 75.9594 91.4006 67.7041C92.2756 71.7875 92.5339 75.9958 92.1506 80.15C110.792 54.1458 93.6964 27.1833 86.5423 20.0833C86.5173 20.0291 86.4923 20.0041 86.4923 19.9541C86.4673 19.9791 86.4673 19.9791 86.4673 20.0041C86.4673 19.9791 86.4673 19.9791 86.4381 19.9541C86.4381 20.2625 86.4131 20.5708 86.3881 20.8833C86.3165 21.4618 86.2304 22.0383 86.1298 22.6125C86.0048 23.1791 85.8465 23.75 85.6923 24.3208C85.5089 24.8625 85.3048 25.4291 85.0673 25.9708C84.8312 26.5058 84.5741 27.0312 84.2964 27.5458C83.7199 28.5582 83.0548 29.5175 82.3089 30.4125C81.9214 30.875 81.5089 31.2875 81.0923 31.7041C80.8487 31.9268 80.5986 32.1422 80.3423 32.35L79.7506 32.8666C79.2896 33.2305 78.8067 33.5658 78.3048 33.8708C77.8112 34.1887 77.3022 34.4821 76.7798 34.75C76.2381 35.0083 75.6964 35.2416 75.1548 35.475C74.0515 35.8946 72.91 36.2058 71.7464 36.4041C71.1506 36.5083 70.5589 36.5583 69.9881 36.6125C69.5762 36.6416 69.1635 36.6583 68.7506 36.6625C68.1632 36.6544 67.5765 36.6196 66.9923 36.5583C66.4024 36.512 65.8163 36.4257 65.2381 36.3C64.6524 36.1937 64.0747 36.0475 63.5089 35.8625H63.4798C64.0506 35.8083 64.6173 35.7583 65.1881 35.6541C66.351 35.4525 67.4922 35.1414 68.5964 34.725C69.1631 34.5166 69.7048 34.2583 70.2214 34C70.7631 33.7416 71.2548 33.4583 71.7714 33.15C72.2631 32.8166 72.7506 32.4791 73.2173 32.1166C73.6839 31.7541 74.1214 31.3666 74.5339 30.9541C74.9714 30.5666 75.3589 30.1291 75.7464 29.6875C76.1339 29.225 76.4964 28.7583 76.8298 28.2958C76.8839 28.2166 76.9381 28.1125 76.9881 28.0375C77.2464 27.6208 77.5048 27.2083 77.7381 26.7958C78.3074 25.768 78.7736 24.6863 79.1298 23.5666C79.3131 23.025 79.4423 22.4583 79.5714 21.8875C79.6756 21.2958 79.7798 20.7291 79.8298 20.1583C79.8798 19.5666 79.934 18.9708 79.934 18.4041C79.934 17.9875 79.9048 17.575 79.8798 17.1625C79.8283 16.5841 79.7588 16.0074 79.6714 15.4333C79.571 14.8512 79.4431 14.2742 79.2881 13.7041C79.1048 13.1625 78.9256 12.5916 78.7173 12.05C78.5089 11.5083 78.2548 10.9666 77.9964 10.45C77.7089 9.9333 77.4256 9.41663 77.1173 8.92497C76.7874 8.44226 76.4428 7.96982 76.0839 7.5083C75.6964 7.06663 75.3089 6.62497 74.8964 6.18747C74.6791 5.96579 74.4554 5.75042 74.2256 5.54163C73.0589 4.63747 71.8506 3.78747 70.6339 3.01247C70.4671 2.91608 70.2945 2.82981 70.1173 2.75413C69.3512 2.28511 68.5258 1.91659 67.6631 1.66663Z" fill="#E3E3E3"/>
</g>
<defs>
<clipPath id="clip0_2073_9507">
<rect width="100" height="100" fill="white" transform="translate(0.571289)"/>
</clipPath>
</defs>
</svg>
