<svg width="101" height="100" viewBox="0 0 101 100" fill="none" xmlns="http://www.w3.org/2000/svg">
<g clip-path="url(#clip0_2089_4)">
<path d="M47.4437 0.0781549C47.2289 0.0976843 46.5453 0.166037 45.9302 0.21486C31.7421 1.49403 18.4524 9.14954 10.0352 20.916C5.34819 27.4583 2.35043 34.8794 1.21773 42.74C0.817378 45.4839 0.768555 46.2943 0.768555 50.0147C0.768555 53.735 0.817378 54.5455 1.21773 57.2894C3.93231 76.0473 17.2806 91.8075 35.3843 97.6468C38.6262 98.6916 42.0438 99.4044 45.9302 99.834C47.4437 100 53.986 100 55.4995 99.834C62.2079 99.0919 67.8909 97.4319 73.4958 94.5709C74.3551 94.1315 74.5211 94.0143 74.4039 93.9166C74.3258 93.8581 70.6641 88.9464 66.27 83.0095L58.2825 72.2196L48.2737 57.4065C42.7664 49.2628 38.2356 42.6033 38.1965 42.6033C38.1575 42.5935 38.1184 49.1749 38.0989 57.2113C38.0696 71.2821 38.0598 71.8485 37.8841 72.1805C37.6302 72.659 37.4349 72.8542 37.0248 73.0691C36.7123 73.2253 36.4389 73.2546 34.9644 73.2546H33.2751L32.826 72.9714C32.533 72.7859 32.3182 72.5418 32.1717 72.2586L31.9667 71.8192L31.9862 52.241L32.0155 32.6531L32.3182 32.2723C32.4744 32.0672 32.8064 31.8036 33.0408 31.6766C33.4411 31.4813 33.5974 31.4618 35.2867 31.4618C37.2787 31.4618 37.6107 31.5399 38.1282 32.1063C38.2747 32.2625 43.694 40.4258 50.1778 50.2588C56.6615 60.0918 65.5279 73.5182 69.8829 80.1094L77.7923 92.0907L78.1926 91.827C81.7372 89.5225 85.4868 86.2416 88.4553 82.824C94.773 75.5688 98.8449 66.722 100.212 57.2894C100.612 54.5455 100.661 53.735 100.661 50.0147C100.661 46.2943 100.612 45.4839 100.212 42.74C97.4974 23.9821 84.1491 8.22189 66.0454 2.38262C62.8523 1.34756 59.4542 0.634741 55.646 0.205096C54.7086 0.107449 48.2542 3.75658e-05 47.4437 0.0781549ZM67.8909 30.29C68.3596 30.5244 68.7404 30.9736 68.8771 31.4423C68.9553 31.6962 68.9748 37.1253 68.9553 49.3605L68.926 66.9173L65.8306 62.1717L62.7254 57.4261V44.6636C62.7254 36.4125 62.7645 31.7743 62.823 31.5497C62.9793 31.0029 63.321 30.5732 63.7897 30.3193C64.1901 30.1143 64.3366 30.0948 65.8696 30.0948C67.3148 30.0948 67.5687 30.1143 67.8909 30.29Z" fill="#E3E3E3"/>
<path d="M77.3036 92.3054C76.9619 92.5202 76.8545 92.6667 77.1572 92.5007C77.372 92.3738 77.7235 92.1101 77.6649 92.1003C77.6356 92.1003 77.4696 92.198 77.3036 92.3054ZM76.6299 92.7448C76.4541 92.8815 76.4541 92.8913 76.6689 92.7839C76.7861 92.7253 76.8838 92.6569 76.8838 92.6374C76.8838 92.5593 76.8349 92.5788 76.6299 92.7448ZM76.1417 93.0377C75.9659 93.1745 75.9659 93.1842 76.1807 93.0768C76.2979 93.0182 76.3955 92.9499 76.3955 92.9303C76.3955 92.8522 76.3467 92.8717 76.1417 93.0377ZM75.6534 93.3307C75.4777 93.4674 75.4776 93.4772 75.6925 93.3697C75.8096 93.3112 75.9073 93.2428 75.9073 93.2233C75.9073 93.1452 75.8585 93.1647 75.6534 93.3307ZM74.9113 93.7213C74.5402 93.9166 74.5598 93.9947 74.9308 93.8092C75.0968 93.7213 75.2238 93.6334 75.2238 93.6139C75.2238 93.5455 75.214 93.5553 74.9113 93.7213Z" fill="#E3E3E3"/>
</g>
<defs>
<clipPath id="clip0_2089_4">
<rect width="100" height="100" fill="white" transform="translate(0.714844)"/>
</clipPath>
</defs>
</svg>
