<svg width="100" height="100" viewBox="0 0 100 100" fill="none" xmlns="http://www.w3.org/2000/svg">
<path d="M23.6081 85.965C28.2526 86.4373 33.4711 88.9997 37.8383 89.4521C42.229 89.9242 43.5877 86.9057 43.5877 86.9057C43.5877 86.9057 48.5286 85.965 53.723 85.8566C58.9225 85.7326 63.8444 86.7776 63.8444 86.7776C63.8444 86.7776 64.7988 88.6392 66.5805 89.4521C68.3622 90.2807 72.1982 90.3928 74.6568 88.1869C77.1201 85.965 83.6923 83.1662 87.3826 81.4166C91.0965 79.6631 90.4149 76.9888 88.0833 76.1759C85.7516 75.3633 83.843 74.0821 83.9886 71.6238C84.1156 69.1857 81.9296 67.5602 81.9296 67.5602C81.9296 67.5602 83.843 62.1955 82.0613 57.7514C80.2796 53.3276 74.4032 46.2131 69.8856 40.8643C65.368 35.4995 69.2038 29.3059 65.0907 21.3907C60.9771 13.4636 50.3106 13.9321 44.5611 17.311C38.8118 20.69 40.5745 29.0695 40.8518 33.0452C41.1291 37.0007 40.9787 39.8312 40.4475 40.8483C39.9163 41.8812 36.2073 45.6326 33.7439 48.7755C31.2854 51.9343 29.5034 58.4562 27.703 61.1466C25.94 63.8212 27.1718 66.2593 27.1718 66.2593C27.1718 66.2593 25.9403 66.6195 24.9671 68.3733C24.0126 70.1069 22.104 70.9354 18.6675 71.5002C15.2544 72.0966 15.2544 73.9704 16.0772 76.0683C16.9045 78.1621 16.0772 79.3352 15.1228 82.0097C14.1686 84.6838 18.9448 85.4964 23.6081 85.965ZM71.8879 73.7657C74.3277 74.6745 77.8347 73.4093 78.9018 72.5005C79.9645 71.5957 80.7165 70.2505 80.7165 70.2505C80.7165 70.2505 81.7837 70.7028 81.6755 72.14C81.5625 73.5974 82.4088 75.6752 84.0071 76.3959C85.6054 77.1126 88.0452 78.1133 86.7807 79.1143C85.4924 80.1152 78.3659 82.5573 76.2364 84.4631C74.1256 86.3566 71.352 87.9062 69.6642 87.4497C67.958 86.9973 66.4676 85.0116 67.2012 82.105C67.958 79.2104 68.5974 76.0354 68.4892 74.2219C68.3765 72.4083 67.958 69.9662 68.4892 69.6057C69.0203 69.2493 69.8666 69.4214 69.8666 69.4214C69.8666 69.4214 69.4431 72.8612 71.8879 73.7657ZM56.0549 24.7698C58.4053 24.7698 60.2999 26.7555 60.2999 29.1976C60.2999 30.9312 59.3455 32.4326 57.9493 33.1533C57.5968 33.0293 57.23 32.889 56.8257 32.7448C57.672 32.3886 58.2593 31.4798 58.2593 30.4307C58.2593 29.0576 57.2677 27.9286 56.0216 27.9286C54.8089 27.9286 53.7979 29.0574 53.7979 30.4307C53.7979 30.9314 53.9439 31.4317 54.1835 31.824C53.4501 31.5717 52.7873 31.3557 52.2561 31.1836C51.9788 30.5869 51.8141 29.9143 51.8141 29.1979C51.8144 26.7557 53.704 24.7698 56.0549 24.7698ZM50.2348 32.4007C51.3914 32.5728 54.569 33.7459 55.7446 34.1062C56.9199 34.4505 58.2219 35.0909 58.095 35.7317C57.9493 36.3921 57.3429 36.3921 55.7446 37.2209C54.165 38.0338 50.7145 39.8474 49.6097 39.9714C48.5095 40.0955 47.8844 39.5669 46.7088 38.9224C45.5335 38.2657 43.3291 36.7324 43.8835 35.9198C43.8835 35.9198 45.6087 34.7948 46.361 34.2183C47.1134 33.6217 49.0595 32.2164 50.2348 32.4007ZM45.167 25.4745C47.0191 25.4745 48.5283 27.3521 48.5283 29.6662C48.5283 30.0867 48.4718 30.4788 48.3826 30.8712C47.9219 30.9952 47.4614 31.1995 47.0191 31.5279C46.803 31.684 46.6006 31.824 46.4175 31.9802C46.7088 31.5119 46.8218 30.8393 46.6901 30.1345C46.4362 28.8855 45.4443 27.9607 44.4711 28.0848C43.4932 28.225 42.9103 29.37 43.1454 30.6352C43.404 31.9164 44.3769 32.8409 45.3688 32.7009C45.4253 32.685 45.477 32.669 45.5335 32.6528C45.0588 33.0452 44.6168 33.3895 44.156 33.6698C42.8163 33.1371 41.8244 31.5438 41.8244 29.6662C41.8247 27.3362 43.3101 25.4745 45.167 25.4745ZM34.8483 55.7657C36.7569 53.2036 37.9884 47.6024 39.897 45.7407C41.8247 43.8831 43.3101 39.9236 42.6332 38.174C42.6332 38.174 46.7466 42.3657 49.6097 41.6771C52.4772 40.9724 58.9225 36.8928 59.8767 37.5936C60.8311 38.2981 69.0391 53.6719 69.8663 58.5683C70.6939 63.4607 69.3164 67.2002 69.3164 67.2002C69.3164 67.2002 66.1763 66.4955 65.7717 68.1209C65.3675 69.7624 65.3675 75.7078 65.3675 75.7078C65.3675 75.7078 61.1224 80.7123 54.5503 81.5409C47.9781 82.3538 44.6872 81.7612 44.6872 81.7612L40.9969 78.1619C40.9969 78.1619 43.8647 77.8016 43.4602 75.3474C43.0559 72.9093 34.6973 69.53 33.1929 66.4952C31.6891 63.4605 32.9161 58.3319 34.8483 55.7657ZM18.5967 74.1262C18.9258 72.9252 23.1848 72.9252 24.8208 72.0804C26.4569 71.2357 26.7857 68.8095 28.1069 68.169C29.4089 67.5124 31.816 69.8426 32.8079 71.1554C33.7811 72.4366 37.5092 78.0378 39.0323 79.4309C40.5742 80.8362 41.9894 82.6978 41.5474 84.3714C41.1291 86.0447 38.8115 87.2659 38.8115 87.2659C36.7384 87.8104 30.9561 85.6845 28.3284 84.7476C25.7007 83.8069 19.0155 83.5264 18.1553 82.6978C17.2716 81.8531 18.5783 79.9914 18.9261 78.2257C19.2361 76.4402 18.2632 75.3312 18.5967 74.1262Z" fill="#E3E3E3"/>
</svg>
