<svg width="101" height="100" viewBox="0 0 101 100" fill="none" xmlns="http://www.w3.org/2000/svg">
<path d="M24.2205 60.9166H6.22266C6.22607 61.007 6.22834 61.0963 6.23289 61.1855C6.23971 61.3582 6.25222 61.5298 6.26245 61.7026C6.267 61.7767 6.27041 61.8509 6.2761 61.924C6.28974 62.1234 6.3068 62.3228 6.32499 62.521C6.32954 62.5662 6.33295 62.6114 6.33749 62.6543C6.35796 62.8757 6.38184 63.0972 6.40685 63.3163C6.40799 63.3371 6.41026 63.3592 6.41367 63.38C6.4421 63.6165 6.47166 63.8542 6.50577 64.0895C6.50577 64.093 6.50577 64.0965 6.50691 64.0988C6.71442 65.5649 7.02525 67.0139 7.43699 68.4345C7.43926 68.4402 7.44154 68.446 7.44267 68.4518C7.50748 68.6767 7.5757 68.8993 7.64506 69.1207C7.64961 69.1335 7.65416 69.1474 7.65757 69.1602C7.66098 69.1729 7.66553 69.1857 7.67008 69.1996C7.73375 69.4001 7.80083 69.5995 7.86792 69.8001C7.88497 69.8499 7.90203 69.9009 7.92022 69.9519C7.98048 70.1247 8.04188 70.2974 8.10555 70.4713C8.13512 70.549 8.16354 70.6266 8.19197 70.7055C8.24768 70.8492 8.30112 70.9918 8.35683 71.1344C8.3989 71.2422 8.44211 71.35 8.48645 71.4567C8.53193 71.5691 8.57741 71.6793 8.62403 71.7917C8.68088 71.9285 8.74114 72.0641 8.80027 72.2009C8.83552 72.2821 8.8719 72.3621 8.90715 72.4432C8.97992 72.6067 9.05496 72.7701 9.13114 72.9324C9.15616 72.9846 9.18003 73.0368 9.20505 73.0878C9.29373 73.2756 9.38356 73.4599 9.47452 73.6442C9.49044 73.672 9.50294 73.701 9.51773 73.7289C9.62006 73.9329 9.72466 74.1358 9.83268 74.3375C9.83723 74.3467 9.84291 74.3549 9.84632 74.3653C9.86906 74.407 9.89408 74.4476 9.91682 74.4893L25.2881 65.0494L25.345 65.0146C24.7389 63.7116 24.3615 62.3251 24.2205 60.9166Z" fill="#E3E3E3"/>
<path d="M28.6448 69.341L28.6015 69.3851L15.9238 82.3098C15.9886 82.3712 16.0534 82.435 16.1205 82.4941C16.2388 82.6042 16.3593 82.7121 16.4787 82.8199C16.5412 82.8755 16.6015 82.9312 16.664 82.9868C16.8073 83.1132 16.9528 83.2361 17.0972 83.3601C17.137 83.3937 17.1745 83.4262 17.2143 83.4598C17.3986 83.6144 17.5847 83.7666 17.7726 83.9165C17.9523 84.0615 18.133 84.2017 18.3172 84.3432C18.3252 84.3478 18.3309 84.3524 18.3377 84.3582C19.1026 84.9409 19.8941 85.4863 20.7095 85.9928C20.7368 86.0113 20.7652 86.0276 20.7937 86.0461C20.9494 86.14 21.1041 86.2339 21.261 86.3267L21.5475 86.4936C21.6385 86.5469 21.7283 86.5979 21.8193 86.649C21.9841 86.7405 22.149 86.8321 22.315 86.9214C22.3377 86.9341 22.3605 86.9469 22.3843 86.9585C22.8448 87.2042 23.3133 87.4326 23.7863 87.6529L24.2365 86.5388L30.6129 70.753L30.6357 70.695C29.9398 70.3148 29.2724 69.865 28.6448 69.341Z" fill="#E3E3E3"/>
<path d="M27.3243 68.0531C27.1881 67.8984 27.0561 67.7399 26.9286 67.5778C26.8149 67.4352 26.7058 67.2914 26.6 67.1453C26.4784 66.9784 26.3601 66.8092 26.2476 66.6376C26.135 66.4648 26.0236 66.291 25.919 66.1147L10.5283 75.5663C10.7648 75.9674 11.0104 76.3569 11.2628 76.7418C11.2708 76.7557 11.2788 76.7696 11.2878 76.7824C11.2901 76.7882 11.2935 76.7917 11.2969 76.7975C11.3049 76.809 11.3129 76.823 11.3208 76.8357C11.322 76.8369 11.3231 76.838 11.3231 76.8403C11.3436 76.8705 11.364 76.9006 11.3845 76.9319C11.3856 76.9331 11.3868 76.9354 11.389 76.9377C11.3913 76.94 11.3902 76.9389 11.3902 76.94C11.6574 77.3423 11.9325 77.7388 12.2157 78.126C12.2213 78.1341 12.2282 78.1422 12.2338 78.1503C12.2407 78.1584 12.2464 78.1665 12.252 78.1747C12.376 78.3404 12.4988 78.5062 12.6261 78.6708C12.6432 78.6929 12.6591 78.7137 12.6773 78.7346C12.8069 78.905 12.9399 79.0731 13.0752 79.2389C13.1071 79.2783 13.14 79.3177 13.1719 79.3583C13.2935 79.5067 13.4152 79.6539 13.5391 79.8C13.5926 79.8626 13.6472 79.9263 13.7017 79.9878C13.8075 80.1107 13.9121 80.2335 14.0201 80.3541C14.0792 80.4202 14.1406 80.4874 14.2009 80.5535C14.2282 80.5848 14.2555 80.6138 14.2839 80.6451C14.3623 80.732 14.4408 80.819 14.5204 80.9048C14.5522 80.9384 14.5863 80.972 14.6182 81.0068C14.758 81.1552 14.9001 81.3047 15.0434 81.4508L27.7405 68.5075C27.5949 68.3591 27.4585 68.2061 27.3243 68.0531Z" fill="#E3E3E3"/>
<path d="M44.1536 69.334C44.0137 69.4488 43.8728 69.5613 43.7295 69.6691L43.7602 69.7236L53.0178 85.3888C53.4464 85.1036 53.8705 84.8092 54.2844 84.4997C55.1804 83.8261 56.0468 83.0958 56.8825 82.3098L44.2036 69.3851L44.1536 69.334Z" fill="#E3E3E3"/>
<path d="M51.6729 85.5175L51.3591 84.9854L42.7177 70.3635C42.5426 70.4701 42.3641 70.5675 42.1856 70.6649C42.0048 70.7646 41.8241 70.8561 41.6399 70.9454C39.9798 71.7476 38.1833 72.158 36.3834 72.158C35.2044 72.158 34.0264 71.9841 32.8871 71.6375C32.6927 71.5784 32.5028 71.5007 32.3118 71.4311C32.1196 71.3628 31.9252 71.3025 31.7365 71.2236L25.3646 86.999L25.1156 87.6169L24.9019 88.1467L24.9007 88.149C24.9166 88.156 24.9337 88.1618 24.9496 88.1687C24.9678 88.1757 24.9849 88.1815 25.0019 88.1896H25.0042C25.0087 88.1919 25.0133 88.1931 25.0167 88.1942C25.1668 88.258 25.318 88.3113 25.4692 88.3716C25.6591 88.447 25.8479 88.5235 26.0377 88.5942C26.1355 88.6301 26.231 88.6719 26.3277 88.7066H26.3288C28.3257 89.4252 30.3907 89.9291 32.4903 90.2102C32.5733 90.2206 32.654 90.2322 32.737 90.2438C32.8223 90.2543 32.9087 90.2624 32.9951 90.2728C33.1566 90.2914 33.318 90.3099 33.4806 90.3261L33.6012 90.3366C33.8001 90.3563 33.9991 90.3737 34.197 90.3876C34.2652 90.3934 34.3334 90.3957 34.4005 90.4015C34.5744 90.4131 34.7484 90.4235 34.9224 90.4316C35.0293 90.4386 35.1361 90.4409 35.243 90.4455C35.3817 90.4502 35.5193 90.456 35.658 90.4606C35.857 90.4653 36.0583 90.4664 36.2584 90.4676C36.3061 90.4676 36.3527 90.4687 36.4005 90.4699C38.0776 90.4699 39.7547 90.3273 41.4136 90.0433C41.4409 90.0386 41.4693 90.034 41.4977 90.0305C41.6728 89.9992 41.8479 89.9656 42.023 89.9331C42.1231 89.9134 42.2243 89.8937 42.3221 89.874C42.4244 89.852 42.5279 89.8311 42.6302 89.8079C42.8008 89.772 42.9713 89.7337 43.143 89.6932C43.1737 89.6862 43.2044 89.6804 43.2351 89.6711C45.757 89.073 48.1925 88.1455 50.4801 86.9179V86.9167C50.6302 86.8367 50.7769 86.7451 50.9259 86.6617C51.1032 86.5631 51.2795 86.46 51.4568 86.3568C51.5785 86.2861 51.7024 86.22 51.8241 86.1458C51.8252 86.1446 51.8264 86.1435 51.8275 86.1435H51.8286C51.8309 86.1423 51.8321 86.1412 51.8343 86.14L51.8366 86.1377C51.8377 86.1377 51.8389 86.1365 51.84 86.1365C51.8423 86.1354 51.8434 86.1342 51.8457 86.133C51.8525 86.1284 51.8593 86.1249 51.8662 86.1203C51.9048 86.096 51.9446 86.0728 51.9844 86.0484L51.6729 85.5175ZM28.6517 50.0182C28.7916 49.9023 28.9337 49.791 29.0758 49.682L29.0451 49.6287L19.7876 33.9623C19.3578 34.2486 18.9337 34.5442 18.5187 34.8538C17.6238 35.5261 16.7563 36.2553 15.9229 37.0402L28.6017 49.966L28.6517 50.0182Z" fill="#E3E3E3"/>
<path d="M15.0436 37.9015C14.8992 38.0488 14.7627 38.2006 14.6217 38.349C14.4819 38.4986 14.3386 38.647 14.201 38.7977C13.2754 39.818 12.4184 40.9009 11.6359 42.039C11.5984 42.0912 11.562 42.1468 11.5245 42.2001C11.4381 42.33 11.3517 42.4586 11.2675 42.5885C11.1788 42.723 11.0913 42.8597 11.006 42.9954C10.9742 43.0452 10.9424 43.0962 10.9117 43.1461C7.99521 47.8098 6.43295 53.0996 6.2226 58.4334C6.21464 58.6409 6.21009 58.8484 6.20555 59.0548C6.20213 59.2611 6.19531 59.4687 6.19531 59.675H24.1522C24.1522 59.4687 24.1704 59.2623 24.1818 59.0548C24.192 58.8473 24.1943 58.6398 24.2147 58.4334C24.4467 56.05 25.3495 53.7221 26.9231 51.7676C27.0504 51.6088 27.1948 51.4592 27.3324 51.3062C27.4677 51.152 27.5951 50.9932 27.7406 50.8448L15.0436 37.9015ZM52.0932 33.3572C52.0693 33.3421 52.0432 33.327 52.0193 33.312C51.8612 33.2134 51.7021 33.1184 51.5417 33.0233C51.4496 32.9688 51.3564 32.9155 51.2643 32.8622C51.1699 32.8089 51.0778 32.7555 50.9835 32.7034C50.8211 32.6133 50.6585 32.5236 50.4957 32.4344C50.4695 32.4217 50.4445 32.4077 50.4184 32.3938C49.3655 31.8327 48.2842 31.3389 47.1802 30.91C47.1517 30.8984 47.1233 30.8868 47.0949 30.8763C46.8538 30.7848 46.6128 30.6932 46.3695 30.6074C44.4072 29.9096 42.3799 29.4189 40.3194 29.1432L40.067 29.1085C39.9817 29.098 39.8976 29.0899 39.8134 29.0806C39.6508 29.0609 39.4894 29.0424 39.3257 29.0261C39.2813 29.0215 39.2358 29.0192 39.1892 29.0134C38.9971 28.996 38.8026 28.9786 38.6093 28.9635L38.3831 28.9496C38.2182 28.9392 38.0499 28.9264 37.8851 28.9195C37.7964 28.9149 37.7077 28.9114 37.6201 28.9091V47.2592C38.5434 47.3566 39.4587 47.5571 40.3467 47.8643L53.5941 34.36C53.1017 34.0122 52.6049 33.6737 52.0932 33.3572Z" fill="#E3E3E3"/>
<path d="M35.7941 28.894C35.5906 28.8986 35.3871 28.8986 35.1847 28.9067C33.9147 28.9589 32.6469 29.0911 31.3893 29.3067C31.3621 29.3113 31.3348 29.316 31.3063 29.3206C31.1301 29.3519 30.955 29.3844 30.7799 29.418C30.681 29.4377 30.5809 29.4562 30.4809 29.4759C30.3774 29.4968 30.2751 29.5188 30.1716 29.542C30.0011 29.5779 29.8305 29.6162 29.6611 29.6568C29.6292 29.6626 29.5986 29.6707 29.5679 29.6776C27.0473 30.2776 24.6122 31.2033 22.3217 32.4321C22.1727 32.5132 22.0272 32.6048 21.8782 32.6871C21.7008 32.7868 21.5235 32.8888 21.3472 32.992C21.2165 33.0697 21.0834 33.1404 20.9527 33.2192C20.9516 33.2204 20.9493 33.2215 20.9481 33.2215C20.939 33.2273 20.9299 33.2331 20.9209 33.2378C20.8867 33.2598 20.8515 33.2772 20.8174 33.2981L20.8185 33.3004L21.1335 33.8325L30.0875 48.9877C30.2626 48.881 30.4411 48.7825 30.6196 48.6851C30.7992 48.5866 30.9812 48.4938 31.1642 48.4057C32.4296 47.7899 33.7897 47.4013 35.1847 47.2569C35.3871 47.236 35.5895 47.2186 35.793 47.2082C35.9954 47.1977 36.1989 47.1873 36.4024 47.1873V28.8812C36.1989 28.8812 35.9965 28.8905 35.7941 28.894Z" fill="#E3E3E3"/>
<path d="M66.5725 58.1621C66.5634 57.9975 66.5543 57.8341 66.5429 57.6683C66.5387 57.5863 66.5334 57.5044 66.527 57.4225C66.5145 57.2289 66.4986 57.0353 66.4804 56.8417C66.477 56.7919 66.4724 56.742 66.4679 56.6922C66.4474 56.4754 66.4247 56.2598 66.3996 56.0442C66.3974 56.0268 66.3962 56.0094 66.394 55.992L66.3906 55.9676C66.3633 55.7346 66.3326 55.5016 66.3007 55.2698L66.2973 55.2477C66.09 53.7844 65.78 52.3382 65.3695 50.9202C65.3661 50.9097 65.3638 50.9016 65.3604 50.8923C65.2956 50.6709 65.2285 50.4518 65.1614 50.2327C65.1512 50.2037 65.1421 50.1748 65.133 50.1458C65.0693 49.9475 65.0045 49.7505 64.9374 49.5534L64.8829 49.3934C64.8237 49.223 64.7623 49.0526 64.7009 48.8822C64.6702 48.801 64.6407 48.7199 64.6089 48.6399C64.5565 48.4984 64.5031 48.3582 64.4474 48.2191C64.4042 48.1066 64.3598 47.9965 64.3155 47.8875C64.2712 47.7774 64.2257 47.6696 64.1813 47.5606C64.1222 47.4215 64.0619 47.2824 64.0017 47.1444C63.9676 47.0667 63.9335 46.9879 63.8982 46.9091C63.8243 46.7445 63.7481 46.5787 63.6719 46.4141C63.6481 46.3654 63.6242 46.3144 63.6003 46.2645C63.5116 46.0767 63.4207 45.8878 63.3274 45.7023C63.3149 45.6768 63.3013 45.6501 63.2888 45.6246C63.1853 45.4194 63.0784 45.2131 62.9715 45.0102C62.967 45.0032 62.9636 44.9951 62.959 44.9882C62.4369 44.0098 61.8634 43.0609 61.241 42.1456L47.9902 55.6558C48.2915 56.5612 48.4871 57.4944 48.5826 58.4346H66.5838C66.5793 58.343 66.577 58.2514 66.5725 58.1621Z" fill="#E3E3E3"/>
<path d="M48.6529 59.675C48.6529 59.8825 48.6335 60.0888 48.6233 60.2964C48.6131 60.5039 48.6097 60.7114 48.5892 60.9166C48.3572 63.3012 47.4556 65.629 45.882 67.5847C45.7546 67.7435 45.6102 67.8919 45.4726 68.0461C45.3362 68.1991 45.21 68.3579 45.0645 68.5063L57.7615 81.4496C57.9059 81.3024 58.0412 81.1505 58.1822 81.001C58.3232 80.8514 58.4664 80.7042 58.6029 80.5523C59.5421 79.5148 60.4016 78.4297 61.1748 77.3017C61.2067 77.2565 61.2351 77.2125 61.2658 77.1684C61.3602 77.0305 61.4511 76.8902 61.5443 76.7511C61.6251 76.6259 61.7058 76.5018 61.7843 76.3755C61.8241 76.3152 61.8627 76.2526 61.9002 76.1923C64.8121 71.5309 66.371 66.2469 66.5802 60.9166C66.5881 60.7102 66.5927 60.5027 66.5961 60.2952C66.6007 60.0888 66.6063 59.8825 66.6063 59.675H48.6529Z" fill="#E3E3E3"/>
<path d="M71.9408 23.4442C68.656 20.0951 63.3302 20.0951 60.0454 23.4442C57.4246 26.1152 56.9004 30.1089 58.4615 33.3154L40.1374 51.9971C36.9924 50.4066 33.0743 50.9399 30.4534 53.6108C27.1686 56.96 27.1697 62.39 30.4534 65.7391C33.7394 69.0883 39.0663 69.0871 42.3512 65.7391C44.972 63.067 45.495 59.0733 43.9339 55.8668L62.258 37.1863C65.4041 38.7768 69.32 38.2435 71.9408 35.5714C75.2257 32.2234 75.2257 26.7934 71.9408 23.4442Z" fill="#E3E3E3"/>
</svg>
