<svg width="100" height="100" viewBox="0 0 100 100" fill="none" xmlns="http://www.w3.org/2000/svg">
<path d="M93.0064 3.13751H47.8721C47.8721 14.3844 56.9908 23.5031 68.2377 23.5031H76.5502V31.5375C76.5596 42.7594 85.6439 51.8563 96.8564 51.8875H96.8596V7.06564C96.8596 7.05939 96.8596 7.05626 96.8596 7.05001C96.8596 4.90939 95.1408 3.17189 93.0096 3.14064H93.0064V3.13751ZM70.6752 25.6188H25.5408C25.5439 36.8656 34.6596 45.9813 45.9064 45.9813H54.2189V54.0188C54.2283 65.2625 63.3408 74.3719 74.5846 74.3813V29.5313C74.5846 27.3719 72.8346 25.6219 70.6752 25.6219V25.6188ZM48.3252 48.0969H3.1377C3.14395 59.3469 12.2658 68.4625 23.5158 68.4625C23.5346 68.4625 23.5533 68.4625 23.5721 68.4625H31.8877V76.4938C31.8877 87.7375 41.0002 96.8531 52.2439 96.8594V52.0219C52.2439 49.8531 50.4877 48.0969 48.3189 48.0969H48.3252Z" fill="#E3E3E3"/>
</svg>
