<svg width="101" height="100" viewBox="0 0 101 100" fill="none" xmlns="http://www.w3.org/2000/svg">
<g clip-path="url(#clip0_2089_22)">
<path fill-rule="evenodd" clip-rule="evenodd" d="M50.3298 1.04169C22.7205 1.04169 0.333008 23.5147 0.333008 51.243C0.333008 73.418 14.658 92.233 34.5299 98.8718C37.0299 99.333 37.9424 97.783 37.9424 96.4527C37.9424 95.2605 37.8986 92.1044 37.8736 87.9159C23.9642 90.9498 21.0299 81.1863 21.0299 81.1863C18.758 75.3884 15.4799 73.8448 15.4799 73.8448C10.9393 70.7294 15.8236 70.792 15.8236 70.792C20.8392 71.1466 23.4798 75.9656 23.4798 75.9656C27.9423 83.6366 35.183 81.4216 38.033 80.1352C38.4861 76.8912 39.7799 74.6794 41.208 73.4244C30.1049 72.1569 18.433 67.8524 18.433 48.6171C18.433 43.136 20.3799 38.6558 23.5799 35.1451C23.0643 33.8744 21.3487 28.7731 24.0674 21.8614C24.0674 21.8614 28.2674 20.5123 37.8174 27.0067C41.808 25.8929 46.0831 25.3376 50.3362 25.3156C54.5831 25.3376 58.8611 25.8929 62.8549 27.0067C72.3986 20.5123 76.5893 21.8614 76.5893 21.8614C79.3174 28.7731 77.6017 33.8744 77.0861 35.1451C80.2924 38.6558 82.2268 43.136 82.2268 48.6171C82.2268 67.8994 70.5361 72.1442 59.3986 73.3867C61.1924 74.9365 62.7924 77.9987 62.7924 82.6828C62.7924 89.3937 62.7299 94.8056 62.7299 96.4527C62.7299 97.7955 63.6299 99.358 66.1674 98.8654C86.0206 92.2141 100.333 73.4118 100.333 51.243C100.333 23.5147 77.9454 1.04169 50.3298 1.04169Z" fill="#E3E3E3"/>
</g>
<defs>
<clipPath id="clip0_2089_22">
<rect width="100" height="100" fill="white" transform="translate(0.333008)"/>
</clipPath>
</defs>
</svg>
