<svg width="100" height="100" viewBox="0 0 100 100" fill="none" xmlns="http://www.w3.org/2000/svg">
<path fill-rule="evenodd" clip-rule="evenodd" d="M46.6673 13.6666H36.834C31.4032 13.6666 27.0006 18.0691 27.0006 23.4999C27.0006 28.9307 31.4032 33.3333 36.834 33.3333H46.6673V13.6666ZM46.6673 6.99994H53.334H63.1673C72.2803 6.99994 79.667 14.3872 79.667 23.4999C79.667 28.8775 77.095 33.6543 73.113 36.6666C77.095 39.6789 79.667 44.4557 79.667 49.8333C79.667 58.946 72.2803 66.3333 63.1673 66.3333C59.4827 66.3333 56.0802 65.1256 53.334 63.0844V66.3333V76.1667C53.334 85.2793 45.9467 92.6667 36.834 92.6667C27.7213 92.6667 20.334 85.2793 20.334 76.1667C20.334 70.7887 22.9065 66.0123 26.8881 62.9999C22.9065 59.9876 20.334 55.2109 20.334 49.8333C20.334 44.4557 22.9066 39.6789 26.8882 36.6667C22.9066 33.6543 20.334 28.8775 20.334 23.4999C20.334 14.3872 27.7213 6.99994 36.834 6.99994H46.6673ZM53.334 13.6666V33.3333H63.1673C68.5983 33.3333 73.0003 28.9307 73.0003 23.4999C73.0003 18.0691 68.5983 13.6666 63.1673 13.6666H53.334ZM36.834 59.6665H46.6673V49.8587V49.8333V49.808V40H36.834C31.4032 40 27.0006 44.4025 27.0006 49.8333C27.0006 55.2511 31.3821 59.6456 36.795 59.6666L36.834 59.6665ZM27.0006 76.1667C27.0006 70.7487 31.3821 66.3543 36.795 66.3333L36.834 66.3333H46.6673V76.1667C46.6673 81.5973 42.2648 86 36.834 86C31.4032 86 27.0006 81.5973 27.0006 76.1667ZM53.334 49.8137C53.3446 44.3919 57.743 40 63.1673 40C68.5983 40 73.0003 44.4025 73.0003 49.8333C73.0003 55.2641 68.5983 59.6667 63.1673 59.6667C57.743 59.6667 53.3446 55.2747 53.334 49.8529V49.8137Z" fill="#E3E3E3"/>
</svg>
